<?xml version="1.0" encoding="UTF-8"?>
<svg version="1.0" xmlns="http://www.w3.org/2000/svg"
 viewBox="0 0 6144 936" preserveAspectRatio="xMidYMid meet">
<metadata>
Created by potrace 1.16, written by Peter Selinger 2001-2019
</metadata>
<g transform="translate(0.000000,936.000000) scale(0.100000,-0.100000)"
fill="#192841" stroke="none">
<path d="M21797 9201 c-4 -17 -11 -193 -18 -393 -10 -323 -13 -367 -30 -401
-18 -35 -18 -49 -10 -184 5 -81 5 -156 1 -169 -5 -13 -24 -27 -44 -34 -20 -6
-41 -21 -47 -32 -11 -20 -13 -587 -4 -1178 2 -129 2 -243 -1 -252 -4 -14 -16
-18 -49 -18 -82 0 -76 95 -70 -1063 5 -971 8 -1196 20 -1562 15 -462 32 -2887
20 -2932 -8 -33 -43 -30 -56 4 -7 16 -13 116 -14 233 -5 326 -15 1436 -20
2155 -4 534 -7 676 -20 745 -8 47 -18 128 -21 180 -3 52 -13 120 -21 150 -16
58 -23 113 -42 320 -7 69 -19 145 -27 170 -8 25 -19 104 -25 175 -5 72 -14
144 -19 160 -12 40 -28 155 -41 290 -5 61 -18 139 -28 175 -19 67 -41 211 -41
269 0 18 -5 42 -12 54 -15 28 -26 98 -41 272 -7 77 -18 150 -25 162 -7 12 -12
34 -12 49 0 15 -18 55 -41 90 l-40 62 3 94 c2 51 2 295 1 542 l-3 448 -37 35
c-38 34 -38 34 -42 124 l-3 90 -44 33 c-26 20 -62 37 -87 41 -84 14 -87 19
-87 161 0 82 -5 136 -13 157 -18 41 -65 97 -82 97 -8 0 -25 -25 -39 -56 -22
-48 -26 -71 -26 -151 0 -52 -5 -103 -10 -114 -14 -25 -56 -25 -95 1 -34 23
-87 26 -103 7 -8 -9 -11 -243 -11 -772 l0 -760 -23 -15 c-64 -41 -67 -50 -64
-162 2 -56 -2 -146 -9 -198 -13 -108 -13 -198 3 -1985 18 -1998 20 -3321 4
-3337 -10 -10 -14 -10 -21 1 -17 26 -21 341 -32 2271 -20 3329 -17 3139 -46
3178 -21 28 -22 41 -25 269 l-3 238 -38 57 c-20 31 -45 59 -55 61 -9 3 -88 5
-174 5 -169 0 -176 -2 -193 -58 -4 -14 -18 -38 -31 -53 l-24 -29 0 -601 c0
-331 5 -773 10 -982 5 -209 12 -546 15 -750 3 -203 7 -444 10 -535 5 -158 10
-2443 7 -2873 -2 -179 -4 -208 -18 -214 -42 -16 -42 -15 -50 792 -4 424 -8
826 -9 895 -1 69 -5 643 -9 1275 -5 706 -12 1163 -18 1183 -5 17 -14 32 -19
33 -5 0 -104 1 -220 1 -184 0 -213 -2 -227 -16 -16 -15 -17 -158 -18 -1899 0
-1035 -4 -1893 -8 -1906 -6 -16 -11 -20 -19 -12 -7 7 -11 160 -13 478 -5 770
-14 1730 -19 1858 -5 139 -12 539 -20 1300 -5 360 -3 586 4 678 11 130 10 141
-10 210 -12 39 -28 84 -36 100 -7 15 -18 52 -24 82 -6 31 -21 79 -34 108 -14
28 -25 60 -25 70 0 10 -13 51 -29 91 -16 40 -32 98 -36 129 -5 35 -16 68 -31
88 -14 19 -24 47 -24 66 0 51 -25 103 -49 103 -25 0 -44 -36 -60 -108 -6 -30
-16 -63 -22 -75 -7 -11 -17 -43 -24 -71 -7 -28 -22 -76 -34 -107 -11 -31 -27
-85 -35 -120 -8 -35 -21 -84 -30 -109 -8 -25 -32 -97 -52 -160 l-38 -115 3
-160 c1 -88 4 -261 7 -385 6 -232 7 -254 4 -305 -1 -16 0 -318 3 -670 2 -352
2 -650 0 -663 -16 -71 -22 15 -24 305 -2 419 -7 1043 -8 1065 -1 9 -19 37 -40
62 -37 42 -50 72 -65 138 -9 40 -32 47 -120 41 -64 -5 -83 -11 -112 -34 -20
-16 -44 -31 -54 -34 -11 -3 -29 -22 -40 -41 l-22 -34 2 -1808 c1 -994 0 -1919
-1 -2057 -4 -242 -5 -250 -24 -250 -15 0 -19 6 -17 25 3 29 4 358 2 615 -1 99
-6 187 -11 197 -6 10 -3 29 7 53 8 20 13 49 10 64 -6 27 -8 171 -8 441 1 85 0
718 -1 1407 -2 1164 -3 1253 -19 1269 -14 14 -42 18 -168 21 l-152 3 -30 -30
c-25 -26 -29 -36 -24 -63 3 -18 6 -153 7 -301 0 -148 5 -279 9 -292 6 -16 4
-33 -6 -53 -11 -21 -13 -42 -8 -64 4 -17 6 -97 5 -177 -2 -80 -2 -156 -1 -170
2 -14 2 -37 2 -52 -2 -40 -2 -94 0 -120 0 -13 1 -77 0 -143 -1 -66 -1 -136 -1
-155 2 -150 2 -526 0 -572 -1 -48 2 -59 18 -70 19 -12 19 -13 -6 -36 -21 -19
-24 -28 -18 -55 4 -18 8 -41 8 -52 -1 -184 -2 -677 -1 -1124 0 -501 -2 -565
-16 -579 -14 -14 -18 -15 -31 -2 -12 13 -16 68 -20 310 -8 463 -15 1502 -18
2780 -3 1194 -4 1209 -39 1222 -7 3 -59 3 -116 -1 -75 -4 -105 -10 -113 -21
-5 -9 -7 -41 -4 -75 3 -33 2 -71 -3 -85 -20 -52 -25 13 -15 214 6 110 7 239 4
285 -6 79 -8 85 -39 111 -32 26 -32 29 -26 82 6 49 4 58 -15 77 -21 21 -28 22
-244 20 -122 -1 -227 -4 -234 -6 -21 -8 -34 -65 -23 -102 6 -23 6 -39 -1 -47
-14 -17 -63 -27 -89 -19 -18 6 -20 12 -15 68 8 92 -2 101 -121 105 -122 5
-134 -3 -134 -93 0 -55 -3 -63 -25 -75 -35 -19 -41 -49 -39 -200 3 -160 13
-2896 15 -3680 1 -808 0 -877 -16 -890 -10 -9 -16 -7 -24 8 -7 14 -11 681 -11
2163 0 1900 -2 2145 -15 2166 l-15 23 -378 0 c-288 0 -382 -3 -395 -13 -17
-11 -17 -105 -15 -1562 4 -2339 4 -2743 -5 -2751 -4 -4 -14 -1 -22 7 -24 24
-35 686 -40 2409 -4 1124 -8 1567 -16 1598 -7 23 -9 64 -6 91 4 34 1 55 -8 69
-21 29 -97 71 -168 92 -70 20 -154 53 -209 81 -42 22 -79 24 -96 7 -7 -7 -12
-39 -12 -75 0 -41 -6 -72 -16 -88 -14 -22 -15 -192 -14 -1762 1 -956 2 -1758
2 -1783 2 -197 -6 -263 -28 -229 -3 6 -8 329 -10 718 -2 388 -6 850 -8 1026
-3 176 -8 874 -12 1550 -4 825 -9 1234 -16 1243 -17 19 -47 14 -91 -16 -90
-61 -123 -82 -134 -82 -5 0 -27 -13 -47 -29 -20 -16 -50 -32 -66 -36 -16 -3
-34 -13 -41 -22 -7 -8 -36 -26 -64 -40 -27 -14 -71 -36 -96 -49 -69 -35 -74
-44 -76 -153 -2 -119 -2 -121 -13 -95 -5 12 -9 401 -9 864 0 490 -3 846 -9
852 -15 15 -64 -10 -107 -55 -68 -71 -165 -158 -190 -169 -42 -19 -46 -54 -45
-372 0 -164 3 -302 5 -306 2 -4 7 -1179 9 -2612 4 -2256 3 -2608 -9 -2624 -13
-16 -16 -17 -24 -4 -7 10 -11 318 -11 850 0 910 -8 3143 -14 3953 -4 527 -5
537 -45 537 -10 0 -32 11 -51 25 -19 14 -41 25 -49 25 -9 0 -65 25 -124 55
-60 30 -133 61 -162 69 -30 7 -67 23 -83 35 -35 25 -55 26 -72 6 -10 -12 -10
-296 -4 -1342 9 -1585 9 -1565 -3 -1588 -10 -17 -11 -17 -23 6 -11 19 -14 161
-15 649 -1 467 -5 631 -14 648 -9 17 -20 22 -54 22 -24 0 -48 5 -55 12 -8 8
-12 68 -12 204 l0 192 -35 26 -35 27 0 435 c0 421 -1 435 -20 454 -26 26 -111
28 -131 4 -11 -13 -13 -99 -10 -449 3 -459 1 -479 -42 -473 l-22 3 -3 969 c-1
738 -5 973 -14 984 -7 8 -22 18 -35 23 -21 8 -23 15 -23 71 0 46 -6 72 -21 97
-12 20 -24 62 -28 102 -4 38 -10 72 -14 75 -4 4 -38 6 -75 6 -112 -2 -105 -23
-104 316 1 244 -1 292 -13 302 -12 10 -18 10 -31 0 -13 -12 -15 -50 -11 -308
l4 -294 -33 -14 c-41 -17 -56 -43 -48 -82 6 -31 -6 -63 -38 -99 -16 -17 -20
-35 -20 -90 1 -63 -1 -69 -29 -93 l-30 -25 -1 -1176 c0 -1047 1 -1179 15
-1206 14 -27 14 -32 1 -51 -13 -19 -15 -188 -16 -1370 -1 -1264 0 -1351 17
-1385 16 -35 16 -38 0 -64 -17 -25 -18 -68 -20 -535 -1 -279 -4 -511 -8 -514
-4 -4 -9 -5 -12 -2 -3 2 -6 182 -8 399 -3 310 -6 401 -17 426 -12 28 -12 38 0
70 18 48 18 511 -1 555 -9 21 -9 35 0 56 14 35 14 -50 7 2411 -5 1649 -8 1988
-20 2005 -13 21 -17 21 -565 20 -508 -1 -552 -2 -570 -18 -17 -15 -20 -34 -21
-144 -2 -70 -2 -145 -2 -167 1 -22 0 -170 -1 -330 -1 -159 -2 -432 -2 -606 0
-303 1 -318 20 -339 20 -22 20 -34 18 -1584 -2 -858 -6 -1832 -9 -2163 -6
-571 -8 -603 -25 -603 -10 0 -21 9 -24 21 -4 11 -5 973 -3 2137 l3 2117 -43
85 c-67 133 -92 171 -121 181 -14 6 -36 19 -48 31 -38 36 -154 88 -196 88 -53
0 -192 -70 -261 -132 -42 -37 -66 -70 -96 -132 l-40 -82 -3 -2154 -2 -2155
-23 -3 -22 -3 -1 563 c-2 1022 0 5040 3 5723 l4 670 -23 23 c-21 21 -30 22
-172 22 -123 0 -152 -3 -165 -16 -14 -14 -16 -287 -17 -2852 0 -1560 0 -2907
0 -2992 1 -200 -10 -742 -15 -737 -7 7 -13 629 -19 1952 -4 835 -10 1249 -17
1268 -13 34 -40 41 -121 33 -53 -6 -67 -4 -86 11 l-23 19 1 835 2 835 -27 40
c-39 57 -55 100 -46 124 11 29 2 92 -12 87 -7 -2 -11 -30 -11 -73 0 -54 -5
-77 -23 -105 -26 -42 -31 -44 -131 -44 -74 0 -75 0 -95 34 -15 26 -19 49 -18
100 3 89 -5 121 -29 121 -10 0 -19 -1 -20 -2 -1 -2 -4 -56 -8 -120 -6 -105 -9
-119 -30 -142 l-24 -26 1 -1217 c2 -1255 3 -3573 3 -3930 -1 -197 -2 -202 -22
-208 -14 -5 -25 -2 -30 6 -5 8 -9 903 -9 1989 0 1772 -2 1978 -16 1998 -15 22
-18 22 -273 22 -209 0 -261 3 -270 14 -9 10 -13 184 -15 637 -2 347 -8 680
-14 749 -7 69 -15 171 -20 228 -11 126 -19 137 -95 134 -93 -4 -331 -38 -354
-50 -31 -17 -41 -64 -51 -230 -9 -149 -22 -190 -42 -136 -8 20 -11 261 -11
820 1 723 -1 793 -16 805 -23 20 -315 26 -330 7 -8 -9 -13 -995 -17 -3392 -4
-2115 -10 -3384 -16 -3395 -12 -21 -12 -115 -16 1783 l-3 1639 -21 22 c-20 21
-28 22 -103 18 -71 -5 -85 -3 -97 12 -13 15 -15 133 -16 844 -1 738 -3 832
-17 881 -10 31 -16 85 -16 123 1 69 -9 96 -31 82 -9 -5 -10 -28 -5 -80 6 -71
6 -74 -22 -104 -28 -30 -29 -30 -138 -32 l-109 -3 -19 30 c-15 24 -17 41 -12
105 6 80 -5 129 -29 129 -26 0 -36 -36 -36 -132 0 -51 -5 -111 -10 -133 -5
-22 -10 -206 -10 -410 -1 -388 -2 -2397 -1 -2570 1 -55 1 -615 1 -1244 1 -997
-1 -1147 -14 -1160 -12 -11 -18 -12 -29 -2 -13 10 -15 115 -16 714 -1 386 -3
1278 -6 1981 -4 1274 -4 1279 -24 1300 -20 19 -32 20 -270 21 -137 0 -252 3
-256 6 -3 4 -6 280 -7 615 0 650 -4 753 -37 907 -12 55 -21 121 -21 147 0 32
-6 56 -18 71 l-19 22 -176 -21 c-97 -12 -188 -27 -202 -34 -27 -12 -39 -45
-51 -138 -4 -30 -15 -76 -25 -101 -16 -42 -19 -72 -28 -287 -1 -7 -5 -11 -10
-7 -8 5 -12 55 -14 205 0 19 1 381 2 805 2 726 2 770 -15 782 -13 9 -60 13
-161 13 -138 0 -143 -1 -158 -23 -15 -23 -15 -12 -13 -1567 2 -1063 -5 -2188
-12 -2200 -12 -19 -12 -28 -15 200 -2 107 -4 201 -4 207 -2 27 -62 45 -146 44
-66 -1 -85 2 -96 15 -17 21 -18 68 -17 854 0 333 0 616 0 630 0 14 -1 57 -1
96 -1 45 -9 92 -22 130 -15 43 -22 86 -23 156 -1 101 -13 135 -38 109 -9 -8
-13 -44 -13 -106 0 -79 -3 -98 -21 -121 -19 -27 -25 -28 -105 -30 -75 -1 -87
1 -112 22 -45 38 -71 32 -103 -23 l-28 -48 3 -595 c2 -327 5 -1256 7 -2065 2
-808 3 -1517 4 -1575 1 -58 -1 -283 -4 -500 -2 -217 -5 -444 -5 -503 -1 -88
-4 -109 -17 -114 -8 -3 -21 0 -27 6 -9 9 -12 238 -13 929 -1 504 -2 1387 -3
1961 -1 574 0 1046 3 1048 8 9 -15 61 -30 67 -8 3 -129 6 -269 7 -185 0 -257
4 -264 13 -6 7 -12 243 -15 641 -5 654 -13 855 -39 940 -8 28 -18 70 -21 94
-11 74 -21 84 -74 77 -67 -9 -115 -15 -212 -26 -153 -19 -150 -18 -165 -54 -8
-19 -19 -64 -25 -102 -6 -38 -17 -89 -25 -114 -12 -38 -15 -447 -18 -2752 -2
-1489 -6 -2711 -10 -2715 -4 -3 -12 -2 -18 4 -6 6 -10 500 -10 1514 0 827 0
1668 -1 1869 -1 201 -1 412 0 470 2 77 -1 115 -12 142 -9 21 -16 56 -16 78 0
23 -9 61 -20 86 -12 24 -18 49 -14 55 13 22 -6 57 -37 68 -19 7 -113 11 -234
11 -228 0 -235 -2 -235 -75 0 -65 -31 -198 -57 -242 -14 -23 -22 -47 -18 -52
10 -18 7 -3913 -4 -3924 -27 -27 -30 16 -31 481 -7 2330 -8 4750 -2 5472 4
481 4 883 0 892 -14 29 -68 35 -291 34 -197 -1 -220 -3 -232 -19 -10 -14 -13
-228 -13 -1108 0 -691 -4 -1095 -10 -1101 -6 -6 -23 -6 -48 1 -25 7 -53 7 -79
1 -22 -5 -68 -10 -103 -10 -41 0 -76 -6 -100 -19 -22 -11 -72 -21 -122 -26
-47 -4 -100 -13 -119 -21 -22 -9 -38 -11 -44 -5 -6 6 -10 326 -11 839 -1 654
-4 832 -14 844 -7 9 -31 18 -54 22 -22 4 -52 16 -66 26 -13 11 -37 20 -53 20
-16 0 -58 10 -94 22 -58 18 -68 19 -81 7 -12 -13 -15 -121 -19 -703 -3 -437
-9 -694 -15 -706 -9 -16 -15 -18 -36 -10 -33 13 -100 13 -124 0 -19 -10 -20
-28 -19 -516 0 -540 0 -548 -46 -518 -18 12 -54 14 -186 12 l-164 -3 -3 -2117
-2 -2118 897 0 c1693 -1 5278 -10 5828 -15 869 -7 7203 -16 14970 -19 13442
-6 19436 -14 20820 -26 968 -8 2820 -10 6315 -6 2720 4 6466 8 8325 10 1859 2
3584 4 3833 5 l452 1 0 2240 0 2240 -21 21 c-14 14 -18 27 -13 42 12 39 6 80
-16 101 -19 19 -33 21 -153 23 -72 1 -160 -3 -195 -9 -37 -6 -67 -7 -72 -2 -5
5 -10 63 -11 129 -2 128 -13 165 -49 165 -51 0 -48 101 -55 -2000 -7 -2307
-10 -2619 -24 -2633 -7 -7 -15 -6 -26 3 -14 12 -16 282 -13 2946 l2 2934 -26
27 c-14 16 -29 45 -32 65 -4 21 -16 44 -27 52 -11 8 -25 33 -30 57 -6 24 -15
49 -20 56 -13 15 -443 16 -471 1 -10 -5 -21 -25 -24 -48 -4 -24 -17 -49 -35
-66 -19 -18 -29 -38 -29 -57 0 -18 -11 -42 -30 -64 l-30 -34 0 -2517 c0 -1528
4 -2533 10 -2557 5 -22 9 -146 9 -275 0 -129 0 -297 0 -372 l0 -138 -24 0
c-32 0 -55 35 -55 86 0 74 -29 96 -165 124 l-60 13 30 13 c17 7 58 13 92 14
90 0 94 9 95 197 0 81 1 212 2 289 1 128 -1 144 -18 163 -19 21 -19 23 -2 52
16 28 18 58 17 306 -1 220 -4 281 -16 303 -13 24 -13 33 -1 62 16 39 15 307
-1 348 -7 17 -6 34 2 55 10 22 12 97 8 290 -2 143 -4 276 -4 295 5 218 -2 550
-11 573 -8 21 -8 35 1 55 16 35 5 1175 -11 1209 -8 16 -8 30 1 50 7 17 9 59 7
108 -3 44 -6 152 -7 240 -1 118 -6 169 -17 194 -12 26 -13 39 -4 65 8 22 9 89
4 236 -5 113 -8 223 -8 245 0 106 -18 1255 -30 1883 l-7 373 -59 59 c-32 32
-76 69 -97 82 -22 13 -66 46 -100 73 -89 74 -183 142 -207 149 -49 15 -50 12
-46 -232 2 -125 3 -238 2 -252 -8 -136 -9 -498 -1 -520 5 -17 6 -44 1 -67 -7
-31 -12 -386 -9 -573 2 -102 3 -548 1 -590 -2 -52 0 -294 4 -460 3 -136 3
-108 -1 -435 -2 -218 0 -264 12 -286 14 -23 14 -28 0 -50 -21 -34 -22 -559 0
-602 12 -23 11 -31 -2 -57 -12 -24 -15 -73 -15 -265 0 -206 2 -241 17 -266 15
-25 16 -33 4 -62 -16 -39 -17 -525 -1 -541 13 -13 13 -49 -1 -63 -8 -8 -11
-93 -11 -271 0 -219 3 -264 16 -284 14 -21 14 -26 1 -45 -13 -18 -15 -94 -15
-508 -1 -433 1 -489 16 -514 15 -25 15 -30 0 -59 -14 -26 -16 -73 -16 -307 0
-256 1 -276 19 -294 10 -10 25 -21 32 -25 12 -5 12 -7 0 -12 -7 -4 -22 -15
-32 -25 -20 -20 -22 -53 -24 -384 0 -143 -1 -150 -20 -150 -19 0 -20 7 -22
150 -3 151 -4 364 -3 420 1 17 -1 192 -4 390 -2 198 -7 1735 -11 3415 -4 2161
-9 3058 -17 3067 -17 20 -64 15 -95 -11 -15 -13 -46 -33 -69 -44 -22 -11 -46
-27 -53 -36 -7 -9 -29 -18 -48 -22 -19 -4 -47 -17 -63 -31 -27 -22 -101 -53
-180 -73 -19 -5 -79 -10 -132 -10 -101 0 -126 -10 -129 -48 -1 -9 -2 -1601 -3
-3537 -1 -3664 0 -3575 -39 -3562 -7 2 -15 34 -19 73 -3 38 -9 573 -12 1189
-3 616 -9 1404 -12 1750 -3 347 -7 924 -9 1284 -3 440 -8 658 -15 666 -6 7
-22 16 -35 19 -31 8 -45 56 -45 160 0 68 -3 83 -24 111 -13 17 -29 49 -35 71
-6 21 -31 71 -56 109 -24 39 -52 85 -60 103 -10 20 -29 39 -49 47 -18 8 -38
21 -45 29 -7 8 -45 32 -84 52 -65 34 -81 38 -168 42 -114 5 -191 -9 -231 -43
-16 -14 -36 -25 -43 -25 -8 0 -30 -14 -48 -30 -19 -17 -39 -30 -44 -30 -22 0
-145 -162 -162 -213 -9 -30 -32 -72 -50 -94 -31 -39 -33 -46 -40 -154 -7 -102
-10 -114 -32 -131 -13 -10 -29 -22 -35 -27 -21 -17 -24 -409 -24 -2586 0
-2133 -1 -2430 -13 -2441 -30 -30 -50 67 -53 261 -7 435 -23 3622 -23 4660 0
1235 -1 1310 -17 1322 -10 7 -34 13 -55 13 -34 0 -121 33 -210 80 -20 10 -67
30 -105 43 -92 33 -200 83 -208 96 -9 15 -59 14 -74 -1 -9 -9 -12 -742 -12
-3235 0 -2896 -2 -3224 -15 -3230 -9 -3 -19 -2 -23 2 -9 9 -11 612 -12 3620 0
1408 3 2745 6 2970 5 304 4 416 -4 432 -9 16 -23 23 -55 25 l-42 3 -5 158 c-4
125 -8 160 -20 168 -49 33 -101 52 -173 64 -45 7 -107 22 -138 33 -30 11 -75
23 -100 27 -24 4 -53 14 -64 21 -27 20 -52 17 -65 -5 -6 -12 -10 -136 -10
-333 0 -172 -4 -318 -8 -325 -4 -7 -24 -19 -43 -27 -20 -8 -42 -23 -50 -32
-16 -19 -16 -69 -11 -3599 2 -1144 3 -2089 3 -2100 0 -11 1 -201 3 -422 3
-238 1 -405 -5 -409 -19 -11 -27 46 -27 177 1 110 -1 542 -2 639 -8 748 -20
2698 -21 3483 -2 633 -2 638 -23 670 -14 21 -35 35 -64 43 -23 7 -55 22 -70
33 -16 11 -41 23 -58 27 -16 3 -50 19 -75 35 -25 16 -55 29 -66 29 -11 0 -37
13 -58 30 -32 25 -43 29 -75 24 -33 -5 -38 -3 -43 17 -4 13 -7 123 -7 243 l0
219 -28 46 c-15 25 -34 59 -42 75 l-15 29 -179 3 c-177 3 -216 -3 -216 -30 0
-7 -14 -39 -30 -69 l-30 -57 6 -782 c8 -962 8 -958 4 -1093 -3 -152 11 -1615
22 -2194 0 -26 -18 -49 -29 -37 -5 4 -9 220 -10 479 -1 260 -4 780 -6 1155
l-4 684 -27 26 -26 27 -198 1 c-151 1 -202 -2 -220 -13 l-23 -14 1 -1967 c0
-1977 -1 -2216 -12 -2228 -19 -19 -27 17 -27 122 0 63 -3 119 -7 125 -9 15
-24 1968 -24 3302 0 992 -3 1204 -14 1231 -14 33 -14 33 -99 39 -47 4 -96 3
-109 -2 -13 -5 -36 -4 -53 1 -37 11 -195 0 -213 -15 -12 -9 -13 -273 -5 -1612
9 -1782 9 -2525 -2 -2845 -4 -118 -8 -244 -9 -280 -1 -50 -4 -65 -17 -68 -14
-2 -17 29 -22 275 -4 153 -9 971 -12 1818 -5 1452 -9 2145 -19 3063 -4 414 -5
422 -50 422 -12 0 -31 6 -42 14 -17 13 -19 29 -21 181 0 91 -4 275 -7 408 -3
133 -9 377 -12 542 -4 188 -10 305 -17 313 -6 7 -24 20 -41 29 -17 9 -35 21
-39 27 -4 6 -7 84 -5 173 l3 162 -27 28 c-27 28 -28 32 -28 149 0 118 -22 324
-45 419 l-12 50 -16 -55 c-19 -66 -37 -270 -37 -421 0 -107 -1 -111 -27 -137
l-28 -27 0 -180 0 -180 -39 -13 c-22 -7 -46 -18 -53 -24 -10 -8 -13 -149 -13
-724 0 -514 -3 -715 -11 -720 -6 -4 -63 -7 -126 -9 -100 -1 -115 1 -124 16 -5
11 -9 301 -9 722 0 669 -1 705 -18 720 -10 10 -35 17 -55 17 -56 0 -60 16 -56
214 l4 170 -25 13 c-14 7 -29 14 -33 16 -5 1 -10 56 -12 122 -4 120 -12 193
-42 360 -27 151 -35 138 -53 -85 -6 -74 -10 -193 -9 -263 l3 -128 -30 -24 -29
-23 2 -180 2 -180 -39 -16 c-21 -8 -44 -26 -51 -38 -9 -17 -10 -183 -5 -710 5
-500 4 -693 -4 -709 -10 -17 -18 -19 -49 -14 -29 5 -41 2 -52 -11 -12 -15 -14
-404 -11 -2785 2 -1523 1 -2778 -3 -2789 -8 -25 -42 -26 -49 -2 -2 9 -7 130
-10 267 -4 138 -9 360 -12 495 -4 135 -7 713 -9 1285 -2 1046 -7 1249 -30
1295 -7 14 -23 136 -35 270 -12 135 -30 283 -40 330 -10 47 -18 96 -18 110 1
61 -16 207 -26 225 -11 21 -18 73 -36 255 -6 58 -21 153 -35 213 -14 59 -25
125 -25 147 0 38 -15 126 -45 260 -8 36 -17 124 -21 195 -4 81 -13 151 -24
185 -10 30 -21 68 -25 84 -3 17 -20 45 -36 63 -34 39 -30 -36 -33 678 -2 448
-5 495 -36 495 -6 0 -19 9 -29 19 -17 17 -19 30 -15 100 3 47 0 90 -6 101 -14
27 -62 50 -103 50 -19 0 -40 6 -46 14 -6 8 -25 19 -41 26 l-30 12 0 136 c0
135 0 136 -28 165 -26 27 -28 36 -40 185 -7 86 -14 189 -15 227 -1 39 -6 72
-12 75 -10 5 -17 -64 -31 -313 -7 -131 -9 -141 -37 -183 -29 -44 -30 -48 -23
-131 4 -58 3 -90 -5 -99 -15 -18 -57 -18 -93 1 -37 19 -80 19 -96 0 -10 -13
-13 -173 -15 -763 -1 -411 -5 -754 -9 -764 -4 -9 -21 -22 -37 -29 -57 -23 -61
-38 -56 -239 4 -157 3 -182 -11 -187 -9 -4 -22 3 -33 18 -10 13 -28 36 -39 51
-11 15 -50 41 -86 59 -43 21 -66 39 -69 53 -2 12 -6 136 -8 276 l-3 255 -38
72 c-20 39 -42 73 -49 75 -7 2 -90 3 -186 2 -156 -1 -176 -3 -188 -20 -7 -10
-13 -25 -13 -33 0 -9 -14 -36 -31 -61 l-30 -44 6 -586 c15 -1664 24 -3413 20
-4225 -5 -1088 -6 -1137 -22 -1142 -7 -3 -14 6 -17 19 -9 41 -16 1241 -16
2714 0 1379 -1 1433 -19 1455 -18 22 -21 23 -206 21 -121 -1 -192 -5 -199 -12
-8 -8 -11 -554 -11 -1903 -1 -1819 -6 -2261 -26 -2282 -5 -5 -9 4 -10 25 0 19
-2 60 -4 90 -10 167 -25 3027 -19 3781 l6 886 -22 16 c-16 11 -30 13 -52 6
-20 -5 -48 -4 -75 3 -33 8 -54 8 -84 -1 -31 -9 -49 -9 -75 -1 -24 8 -43 9 -64
1 -16 -5 -44 -8 -62 -5 -20 3 -40 0 -51 -8 -17 -12 -18 -93 -22 -1568 -3
-1015 -8 -1557 -15 -1564 -7 -7 -10 62 -10 206 0 118 -2 500 -5 849 -3 349 -7
1062 -10 1584 -3 523 -8 1018 -11 1100 -6 186 -5 185 -131 185 -78 0 -86 -2
-108 -26 l-24 -26 0 878 c0 823 -1 879 -17 891 -13 10 -78 13 -238 15 -297 2
-325 -1 -348 -35 -3 -6 -7 -580 -8 -1275 0 -696 -3 -1268 -5 -1272 -3 -5 -6
-734 -3 -880 0 -14 0 -252 0 -530 -1 -379 8 -2266 11 -2485 1 -91 -13 -405
-21 -435 -28 -119 -31 62 -39 2193 l-4 1168 -67 132 -67 132 -75 5 c-41 3
-133 3 -205 0 l-130 -5 -28 -55 c-17 -34 -26 -64 -22 -77 4 -16 -2 -29 -20
-45 -33 -29 -56 -108 -53 -184 1 -32 -1 -196 -5 -364 -7 -288 -21 -2296 -19
-2832 0 -135 -3 -259 -8 -275 -10 -33 -14 60 -15 332 0 94 -4 753 -8 1465 -8
1093 -11 1299 -23 1317 -13 21 -22 23 -114 23 -92 0 -101 -2 -114 -23 -12 -19
-14 -257 -15 -1666 -1 -1124 -5 -1649 -12 -1663 -18 -34 -43 -18 -50 32 -4 25
-7 772 -8 1660 -2 1842 9 1655 -96 1647 -33 -3 -69 -6 -80 -8 -20 -4 -20 1
-20 216 0 384 23 1118 36 1153 17 46 11 154 -12 191 -20 32 -50 131 -86 276
-8 33 -23 83 -34 110 -10 28 -24 77 -30 110 -6 33 -21 92 -34 130 -13 39 -26
91 -30 117 -6 50 -29 73 -59 62 -17 -6 -36 -55 -36 -93 0 -14 -11 -49 -24 -77
-13 -28 -27 -66 -31 -85 -4 -19 -17 -56 -30 -84 -13 -27 -30 -77 -38 -110 -19
-77 -54 -176 -84 -240 -12 -28 -23 -61 -23 -75 -1 -14 -8 -43 -17 -65 -12 -30
-16 -90 -19 -250 -2 -115 -7 -266 -9 -335 -7 -165 -8 -189 -6 -230 2 -34 -5
-1014 -13 -1955 -3 -264 -7 -720 -9 -1013 -2 -292 -7 -535 -10 -539 -4 -3 -7
5 -8 18 -4 81 -9 719 -8 844 2 83 2 164 2 180 -3 115 -5 1371 -3 1879 1 431
-2 622 -10 630 -6 6 -56 10 -126 10 -100 -1 -118 -4 -135 -20 -18 -18 -20 -45
-28 -439 -8 -417 -6 -1873 4 -2890 7 -667 6 -748 -8 -757 -31 -19 -33 14 -35
639 0 345 -4 745 -7 888 -3 143 -8 695 -10 1228 -2 532 -7 972 -10 977 -9 14
-61 12 -72 -2 -6 -8 -8 -628 -7 -1633 3 -1570 0 -1895 -17 -1878 -8 8 -29
3181 -23 3408 1 55 4 223 6 374 4 255 3 275 -15 297 -15 19 -28 24 -66 24 -26
0 -55 -6 -65 -13 -16 -12 -17 -115 -18 -1947 0 -1064 -3 -2034 -7 -2155 l-6
-220 -25 0 c-17 0 -26 7 -31 25 -4 14 -7 870 -8 1903 -1 1314 -4 1885 -12
1899 -6 11 -24 32 -40 46 -19 18 -39 55 -57 107 l-28 80 -202 3 -201 2 -24
-37 c-14 -21 -32 -44 -41 -52 -9 -7 -16 -28 -16 -47 0 -24 -9 -42 -30 -64
l-30 -31 -1 -337 c0 -185 -2 -783 -3 -1328 -1 -544 -6 -996 -11 -1004 -6 -10
-10 -9 -16 7 -4 11 -8 303 -9 649 -3 1560 -2 1524 -47 1538 -38 11 -228 4
-250 -10 l-22 -14 6 -1643 c3 -903 3 -1655 -1 -1670 -7 -30 -32 -36 -40 -9 -2
9 -8 361 -11 782 -4 421 -8 799 -10 840 -2 41 -6 433 -10 870 -3 437 -8 802
-11 811 -5 19 -38 35 -88 45 -26 4 -43 2 -62 -11 -17 -11 -30 -13 -36 -7 -12
12 -11 872 2 1177 4 121 13 228 21 253 11 35 11 48 0 75 -45 110 -101 301
-101 345 0 27 -8 54 -25 78 -14 20 -25 45 -25 56 0 11 -11 52 -24 91 -29 88
-46 166 -46 213 0 49 -16 74 -46 74 -21 0 -30 -11 -59 -72 -19 -40 -37 -88
-41 -108 -3 -19 -15 -64 -28 -100 -45 -125 -58 -165 -77 -225 -11 -33 -27 -80
-35 -105 -9 -25 -23 -72 -31 -105 -8 -33 -24 -78 -36 -100 l-22 -40 -2 -880
c-1 -484 -2 -1031 -2 -1215 0 -184 -1 -432 -2 -550 -1 -118 -1 -223 -1 -232 4
-133 -3 -1737 -7 -1816 -1 -7 -5 -11 -11 -7 -8 5 -13 81 -9 155 1 29 1 181 0
225 -4 117 -5 385 -1 490 0 17 -2 397 -5 845 -3 448 -5 824 -5 835 0 11 1 328
3 704 l2 683 -23 19 c-20 16 -38 18 -124 14 -55 -2 -106 -9 -114 -16 -14 -11
-15 -45 -13 -279 1 -52 1 -106 1 -120 -2 -535 1 -1790 4 -2090 3 -223 5 -416
5 -430 1 -113 2 -896 1 -1014 -1 -139 -9 -182 -29 -162 -5 4 -9 128 -10 274
-7 893 -18 1578 -37 2287 -7 245 -7 1101 0 1118 15 41 -51 81 -95 57 -17 -9
-21 -21 -22 -68 -1 -53 -2 -55 -10 -22 -5 19 -6 46 -4 60 10 53 14 536 4 572
-12 47 -42 68 -96 68 -80 0 -73 206 -73 -2166 -1 -1165 -4 -2129 -7 -2142 -10
-43 -28 -16 -29 44 -1 32 -6 95 -12 139 -15 116 -24 1959 -14 2820 5 396 5
728 0 737 -12 24 -38 30 -150 32 -65 1 -106 -3 -117 -11 -17 -11 -18 -115 -26
-1835 -4 -1003 -9 -1852 -9 -1887 -1 -49 -5 -66 -18 -75 -14 -8 -21 -7 -34 6
-15 15 -18 104 -25 1020 -4 552 -8 1365 -8 1808 -1 786 -2 806 -21 835 -11 17
-20 46 -20 65 -1 75 -12 77 -295 70 -132 -3 -242 -4 -245 -2 -2 1 -3 160 -3
352 2 327 1 350 -17 372 l-19 24 -270 -2 c-258 -2 -272 -1 -297 18 -29 23
-104 48 -145 48 -60 0 -128 -22 -156 -49 -27 -27 -34 -29 -153 -35 -165 -9
-199 -15 -211 -37 -6 -12 -12 -623 -16 -1681 -3 -915 -7 -1688 -9 -1718 -2
-30 -6 -280 -10 -555 -3 -275 -10 -508 -15 -517 -12 -22 -35 -23 -42 -4 -7 17
-8 400 -12 2755 -2 1502 -5 1795 -16 1802 -8 5 -50 9 -95 9 -68 0 -84 -3 -99
-20 -13 -14 -16 -28 -11 -52 4 -18 6 -202 6 -408 0 -206 -1 -796 -1 -1310 -1
-514 -3 -950 -6 -968 -6 -38 -16 -41 -31 -7 -8 17 -8 33 -2 51 6 15 8 41 5 58
-4 17 -7 696 -8 1508 l-2 1477 -29 30 c-22 23 -27 36 -22 55 7 28 -10 72 -30
80 -7 3 -80 6 -161 7 -185 3 -196 -2 -192 -73 3 -56 -12 -77 -46 -64 -15 5
-17 14 -12 51 5 37 3 49 -12 64 -22 22 -51 18 -77 -10 -14 -16 -15 -23 -4 -49
12 -29 11 -33 -17 -59 -28 -25 -30 -33 -35 -117 -5 -73 -3 -295 3 -464 1 -19
1 -87 0 -150 -1 -63 0 -168 2 -233 2 -65 0 -120 -4 -123 -4 -2 -5 -59 -2 -127
4 -67 6 -135 6 -152 -2 -44 -2 -135 -2 -175 1 -71 2 -746 2 -775 -1 -16 -2
-43 -3 -60 -2 -27 -3 -410 -2 -495 1 -67 3 -736 3 -975 0 -132 1 -430 2 -662
1 -273 -2 -426 -8 -432 -6 -6 -16 -7 -25 -1 -13 8 -15 128 -13 972 1 530 2
974 3 988 0 21 -1 944 -2 1105 0 28 0 176 1 330 1 154 2 289 2 300 -4 263 -1
807 4 827 12 45 -25 60 -160 64 -95 2 -118 -1 -135 -14 l-21 -17 -2 -1892 c-1
-1040 -5 -1895 -9 -1899 -5 -4 -11 -4 -15 0 -5 4 -9 710 -10 1569 -1 859 -2
1624 -3 1699 0 128 -1 138 -22 161 -23 23 -25 23 -176 19 l-154 -4 -15 -35
c-12 -31 -14 -153 -9 -927 8 -1166 16 -1979 21 -1987 3 -3 4 -197 3 -430 0
-233 -1 -444 -1 -469 0 -25 3 -108 6 -185 7 -156 4 -175 -24 -175 -10 0 -19 1
-20 3 0 1 -3 286 -5 632 -3 347 -7 675 -10 730 -2 55 -3 114 -2 130 1 23 -1
354 -3 525 0 14 0 252 1 530 1 278 1 1060 -1 1739 -3 1313 -1 1261 -48 1261
-10 0 -36 -12 -57 -28 -64 -45 -138 -88 -172 -100 -18 -6 -47 -22 -64 -35 -18
-14 -60 -39 -94 -55 -34 -17 -75 -42 -91 -56 -17 -14 -37 -26 -45 -26 -7 0
-23 -7 -34 -15 -21 -14 -21 -17 -18 -487 8 -1206 14 -4719 9 -4729 -5 -7 -11
-6 -20 1 -11 9 -14 125 -14 603 -1 326 -6 1112 -11 1747 -5 635 -10 1495 -10
1911 0 706 -1 758 -17 778 -17 21 -25 22 -147 19 -125 -3 -129 -4 -146 -28
-15 -23 -16 -81 -9 -740 7 -820 14 -4242 8 -4280 -6 -37 -23 -36 -31 1 -3 18
-9 889 -12 1936 -4 1378 -9 1909 -17 1924 -9 19 -17 21 -55 15 -71 -9 -76 5
-73 225 3 170 2 183 -16 193 -10 6 -29 21 -42 33 l-23 22 0 453 c1 452 1 453
-21 471 -30 24 -66 21 -95 -8 l-25 -25 7 -453 c7 -422 6 -453 -10 -466 -13
-11 -22 -12 -34 -4 -15 9 -18 38 -22 212 -5 193 -6 204 -27 220 -32 27 -120
18 -150 -15 l-22 -23 5 -408 c3 -224 6 -426 6 -448 5 -168 -9 -2135 -14 -2141
-16 -16 -22 10 -25 109 -1 56 -3 109 -3 117 -1 18 -1 89 -1 110 2 82 -3 1317
-5 1385 -2 50 -3 104 -4 120 0 17 0 179 0 360 0 182 -1 703 -4 1159 -4 741 -7
831 -21 845 -13 14 -58 17 -301 21 -232 4 -286 8 -294 19 -4 8 -9 89 -9 180
-1 91 -2 239 -4 329 -4 216 5 207 -189 203 -125 -2 -145 -5 -162 -21 -19 -19
-20 -46 -18 -1192 0 -645 4 -1225 8 -1288 9 -134 17 -4013 9 -4049 -4 -14 -10
-20 -15 -15 -18 19 -30 878 -32 2382 -2 860 -5 1567 -8 1571 -14 21 -62 35
-125 35 -38 1 -76 5 -82 9 -9 6 -13 43 -13 127 0 137 -9 156 -67 145 -46 -8
-103 19 -103 50 0 13 -4 36 -10 50 -7 18 -6 56 2 120 10 88 10 97 -10 144 -12
27 -22 59 -22 70 0 13 -15 30 -40 46 l-40 25 -1 183 c0 219 -7 246 -64 265
-22 7 -50 24 -63 37 -13 14 -34 25 -47 25 -13 0 -39 13 -57 28 -87 74 -146 97
-149 58 -4 -43 12 -4109 18 -4641 2 -214 5 -462 6 -549 2 -158 -5 -198 -32
-182 -8 6 -11 37 -9 104 1 54 -3 401 -9 772 -7 371 -15 1365 -19 2208 -8 1794
10 1589 -140 1578 -52 -3 -95 -2 -98 3 -3 5 -7 266 -9 581 l-4 572 -29 24
c-16 13 -46 33 -66 44 -20 11 -56 33 -81 50 l-44 30 0 155 c0 127 -3 159 -15
171 -21 21 -174 74 -213 74 -19 0 -39 -8 -50 -20 -16 -18 -17 -51 -10 -582 4
-310 8 -603 10 -653 3 -111 18 -2370 30 -4515 2 -355 6 -652 10 -661 9 -23
-30 -55 -48 -40 -17 13 -20 449 -27 3789 -3 1374 -5 1514 -20 1530 -32 35 -71
115 -60 126 16 16 13 131 -5 146 -8 6 -19 9 -25 5 -13 -8 -13 -120 0 -145 7
-14 2 -28 -26 -64 -36 -47 -36 -47 -61 -30 -20 12 -37 15 -75 10 -40 -6 -61
-2 -103 15 -29 12 -60 19 -68 16 -9 -3 -25 -27 -37 -54 -21 -48 -22 -52 -20
-758 0 -390 3 -829 5 -975 2 -146 7 -749 10 -1340 4 -591 8 -1345 10 -1674 2
-336 -1 -609 -6 -623 -11 -29 -63 -33 -74 -5 -11 25 -13 159 -20 1272 -3 558
-8 1168 -10 1355 -2 187 -4 559 -4 826 -1 453 -2 488 -19 509 -18 22 -19 22
-316 21 -279 -2 -298 -1 -302 16 -2 10 -6 295 -8 633 -3 640 -16 903 -51 1002
-8 24 -15 59 -15 78 0 41 -7 53 -38 69 -18 10 -47 9 -138 -4 -63 -9 -125 -20
-137 -24 -12 -5 -44 -12 -72 -15 -53 -8 -95 -37 -95 -66 0 -10 -8 -44 -19 -76
-10 -33 -21 -106 -25 -164 -6 -94 -9 -1990 -6 -4328 1 -475 -3 -839 -8 -848
-8 -14 -10 -14 -16 2 -4 11 -9 532 -11 1159 -2 627 -7 1448 -10 1825 -6 638
-8 689 -26 749 -10 35 -19 82 -19 105 0 32 -6 48 -25 66 -18 17 -25 34 -25 60
0 20 -5 41 -12 48 -9 9 -72 12 -223 12 -241 0 -255 -4 -255 -68 0 -20 -7 -46
-15 -56 -9 -12 -15 -42 -15 -75 0 -46 -4 -59 -27 -84 l-28 -28 3 -1092 c1
-601 4 -1485 7 -1965 3 -481 2 -885 -1 -898 -7 -27 -29 -32 -38 -9 -3 9 -6
537 -6 1175 l-1 1159 -27 20 -27 19 0 136 c0 131 -1 135 -26 163 -23 24 -27
40 -32 109 -4 45 -13 99 -21 120 -7 22 -19 65 -25 96 -8 35 -24 73 -45 100
-18 24 -37 56 -43 72 -13 41 -41 57 -57 32 -6 -11 -25 -36 -41 -55 -87 -102
-92 -120 -113 -351 -6 -60 -14 -95 -30 -120 -20 -31 -22 -48 -22 -166 0 -130
0 -131 -25 -142 -18 -8 -107 -12 -275 -12 -286 0 -273 -4 -263 92 6 56 4 61
-41 91 -17 12 -18 29 -17 227 1 117 6 221 11 231 17 31 11 53 -24 81 -19 16
-37 41 -41 58 -8 34 -30 50 -73 50 -18 0 -32 6 -36 16 -3 9 -6 68 -6 132 0 90
-4 128 -19 167 -10 28 -22 70 -26 95 -14 90 -44 200 -59 222 -9 13 -21 39 -26
59 -6 20 -24 53 -40 74 -17 21 -30 42 -30 47 0 17 -115 140 -145 155 -16 8
-39 23 -50 33 -11 10 -37 23 -58 30 -34 11 -42 21 -82 101 l-45 89 0 117 c0
108 -2 121 -25 158 -17 28 -24 55 -25 88 0 31 -11 74 -31 120 -30 69 -31 76
-25 174 5 95 4 103 -14 113 -39 21 -77 -19 -61 -63 18 -48 10 -149 -20 -235
-16 -46 -29 -102 -29 -125 -1 -23 -7 -53 -15 -67 -10 -18 -14 -63 -15 -167 0
-126 -2 -144 -19 -160 -10 -10 -28 -37 -39 -60 -21 -41 -64 -83 -86 -83 -6 0
-29 -14 -50 -30 -22 -17 -44 -30 -50 -30 -16 0 -137 -137 -164 -184 -12 -23
-32 -61 -44 -86 -11 -25 -32 -59 -45 -77 -20 -26 -25 -47 -30 -125 -4 -71 -12
-109 -33 -158 -26 -60 -28 -75 -28 -192 0 -70 -3 -132 -7 -138 -3 -5 -19 -10
-35 -10 -50 0 -78 -16 -85 -50 -4 -17 -20 -47 -37 -65 -27 -31 -28 -37 -19
-72 6 -21 11 -130 11 -243 l0 -205 -31 -26 c-30 -24 -32 -30 -33 -95 l-1 -69
-336 -3 c-304 -2 -338 -1 -350 14 -10 13 -14 50 -14 138 0 112 -2 123 -24 153
-19 25 -26 50 -31 115 -4 47 -14 98 -24 116 -9 18 -14 42 -11 53 9 27 -21 112
-47 135 -11 11 -31 43 -44 72 -26 56 -54 69 -74 32 -6 -11 -33 -47 -61 -80
-49 -59 -51 -65 -65 -158 -8 -53 -19 -126 -23 -162 -4 -36 -17 -85 -29 -110
-18 -39 -22 -63 -22 -173 0 -126 0 -128 -25 -139 -19 -8 -31 -8 -50 0 l-25 12
1 403 c1 353 -1 408 -15 435 -9 17 -16 52 -16 77 0 31 -7 55 -21 74 -20 27
-20 33 -8 80 10 40 10 55 0 73 -7 13 -21 39 -32 58 -10 19 -19 54 -19 78 0 24
-5 53 -12 65 -15 27 -26 93 -38 222 -6 55 -19 147 -29 205 -11 58 -22 125 -26
150 -33 243 -67 115 -89 -342 -3 -54 -9 -105 -15 -115 -5 -10 -7 -31 -4 -46 4
-19 -1 -34 -13 -48 -14 -16 -20 -42 -24 -103 -5 -64 -11 -88 -29 -113 -21 -28
-23 -39 -18 -90 5 -43 3 -63 -8 -77 -8 -11 -15 -41 -15 -67 0 -25 -7 -66 -16
-90 -12 -36 -16 -116 -21 -434 -3 -234 -10 -395 -16 -402 -7 -10 -83 -13 -318
-13 -295 0 -309 1 -319 19 -5 11 -10 75 -10 144 0 119 -1 124 -25 147 -23 22
-25 31 -25 109 0 68 -4 93 -20 119 -11 18 -20 45 -20 61 0 41 -19 92 -46 121
-13 14 -29 41 -35 60 -32 94 -69 78 -166 -69 -32 -49 -36 -63 -48 -180 -15
-140 -24 -181 -48 -227 -13 -26 -16 -56 -13 -155 l3 -123 -29 -28 c-27 -25
-29 -33 -23 -65 11 -62 7 -2237 -5 -2268 -39 -102 -54 146 -80 1265 -6 223
-14 459 -20 525 -6 66 -14 167 -19 225 -6 58 -10 155 -11 215 -1 110 -5 268
-16 590 -4 94 -7 186 -7 205 0 19 -6 172 -13 340 -7 168 -12 312 -12 320 0 8
-5 148 -11 310 -6 162 -11 431 -12 598 0 166 -4 353 -8 414 -7 95 -11 113 -29
128 -31 25 -52 85 -52 149 0 31 -5 75 -10 97 -5 23 -16 140 -25 259 -8 119
-17 220 -20 224 -2 4 -9 52 -15 107 -5 54 -19 169 -30 254 -11 85 -20 175 -20
200 0 25 -4 51 -9 59 -21 32 -30 -37 -41 -294 -15 -367 -29 -633 -41 -735 -5
-47 -13 -134 -18 -195 -16 -181 -18 -189 -52 -214 l-31 -23 3 -156 c1 -87 -1
-308 -5 -492 -5 -292 -9 -407 -22 -730 -2 -36 -7 -135 -12 -220 -6 -86 -13
-455 -16 -820 -4 -366 -11 -735 -17 -821 -7 -108 -7 -164 1 -183 8 -21 7 -47
-4 -100 -9 -46 -11 -92 -7 -130 4 -33 4 -82 -1 -110 -5 -28 -6 -79 -3 -114 5
-44 2 -76 -9 -110 -15 -43 -15 -52 -2 -83 12 -30 13 -75 6 -288 -5 -139 -13
-263 -16 -275 -7 -20 -8 -20 -15 4 -4 14 -8 77 -8 140 -1 63 -6 135 -12 160
-6 25 -10 53 -9 63 2 19 2 138 1 202 0 22 1 121 4 220 4 164 2 183 -14 209
-18 27 -18 30 -1 60 17 31 18 72 10 406 0 8 2 207 4 442 4 371 3 430 -10 443
-9 8 -23 15 -32 15 -31 0 -59 29 -66 65 -5 27 -17 41 -46 60 -31 20 -40 32
-40 53 0 39 -17 52 -66 52 -60 0 -73 21 -66 110 4 54 1 75 -12 95 -16 24 -19
25 -135 25 -146 0 -147 0 -144 -114 3 -96 -9 -116 -68 -116 -41 0 -49 -7 -58
-54 -5 -20 -18 -38 -39 -51 -18 -12 -36 -34 -43 -55 -14 -43 -37 -70 -58 -70
-48 -1 -46 24 -46 -669 0 -357 -3 -653 -7 -657 -5 -4 -10 -5 -13 -3 -2 3 -5
188 -6 411 -1 394 -1 407 -21 425 -18 16 -41 18 -202 19 -183 2 -227 -5 -239
-38 -2 -7 -2 -41 1 -74 3 -40 1 -64 -7 -68 -7 -5 -11 4 -11 26 0 18 -2 258 -4
533 -3 275 -8 864 -12 1308 -6 727 -9 809 -23 816 -20 10 -262 13 -364 5 -59
-5 -80 -10 -87 -24 -6 -11 -6 -88 0 -206 17 -336 29 -991 35 -1808 3 -440 8
-851 9 -915 2 -64 7 -503 11 -976 7 -800 7 -861 -9 -874 -40 -34 -41 -30 -48
922 -3 502 -9 1029 -13 1172 -6 277 -10 459 -19 1050 -3 204 -9 539 -12 745
-3 206 -7 659 -9 1005 -2 347 -6 638 -10 647 -4 10 -24 22 -45 28 -21 6 -43
16 -49 24 -12 14 -18 297 -24 1088 -3 357 -5 368 -51 368 -12 0 -31 6 -42 14
-17 13 -19 29 -21 190 l-1 176 -29 28 -29 27 -12 280 c-7 154 -15 295 -20 314
-9 43 -27 51 -36 16 -9 -35 -36 -431 -36 -529 0 -72 -2 -81 -28 -111 l-29 -32
4 -168 c4 -181 0 -195 -47 -195 -15 0 -35 -9 -46 -21 -18 -20 -19 -40 -17
-428 1 -223 5 -473 8 -556 3 -82 8 -214 10 -292 6 -180 7 -179 -122 -186 -64
-4 -95 -2 -101 6 -8 10 -20 198 -37 612 -2 39 -6 237 -10 440 -7 410 -7 410
-74 427 -20 6 -35 18 -41 34 -5 13 -8 93 -7 177 l3 152 -29 28 c-36 34 -45 77
-47 227 -3 186 -34 583 -46 587 -6 2 -14 -10 -17 -26z m-14277 -3051 c0 -16
-4 -30 -10 -30 -5 0 -10 14 -10 30 0 17 5 30 10 30 6 0 10 -13 10 -30z m-2320
-860 c0 -540 -3 -820 -10 -820 -7 0 -10 280 -10 820 0 540 3 820 10 820 7 0
10 -280 10 -820z m45505 750 c3 -5 -1 -10 -9 -10 -9 0 -16 5 -16 10 0 6 4 10
9 10 6 0 13 -4 16 -10z m-43189 -57 c-11 -11 -19 6 -11 24 8 17 8 17 12 0 3
-10 2 -21 -1 -24z m40884 -113 c0 -40 -4 -70 -10 -70 -6 0 -10 30 -10 70 0 40
4 70 10 70 6 0 10 -30 10 -70z m-47810 -30 c0 -22 -16 -35 -25 -20 -9 14 4 52
16 45 5 -4 9 -15 9 -25z m6928 -126 l-4 -39 -12 29 c-7 16 -10 38 -6 48 10 33
26 5 22 -38z m43303 -39 c0 -5 -9 -11 -21 -13 -20 -3 -27 8 -13 22 10 9 34 3
34 -9z m560 0 c0 -5 -9 -11 -21 -13 -20 -3 -27 8 -13 22 10 9 34 3 34 -9z
m-11581 -60 c0 -15 -43 -12 -48 3 -3 10 4 13 22 10 15 -2 26 -7 26 -13z m8603
-1787 c2 -988 0 -1803 -4 -1810 -11 -16 -9 -267 -16 1778 -5 1576 -4 1848 12
1833 2 -2 5 -813 8 -1801z m-27495 1785 c-10 -2 -26 -2 -35 0 -10 3 -2 5 17 5
19 0 27 -2 18 -5z m187 -3 c-3 -5 -17 -10 -30 -10 -13 0 -27 5 -30 10 -4 6 8
10 30 10 22 0 34 -4 30 -10z m18452 4 c-3 -3 -12 -4 -19 -1 -8 3 -5 6 6 6 11
1 17 -2 13 -5z m80 0 c-3 -3 -12 -4 -19 -1 -8 3 -5 6 6 6 11 1 17 -2 13 -5z
m-32106 -40 c10 -28 4 -64 -12 -64 -5 0 -9 20 -9 45 0 51 6 57 21 19z m49889
-9 c0 -19 -20 -29 -32 -17 -15 15 -2 43 17 36 8 -3 15 -12 15 -19z m298 -4
c-5 -24 -38 -27 -38 -3 0 10 3 21 6 25 11 11 35 -5 32 -22z m298 -10 c-9 -14
-33 -14 -41 -1 -4 6 -1 18 6 26 11 13 14 13 27 0 8 -8 11 -19 8 -25z m302 11
c3 -17 -2 -22 -17 -22 -14 0 -21 6 -21 18 0 38 33 41 38 4z m-1049 5 c13 -16
5 -27 -20 -27 -21 0 -33 15 -24 30 9 14 31 12 44 -3z m309 -10 c3 -15 -2 -18
-25 -15 -17 2 -29 10 -31 21 -3 15 2 18 25 15 17 -2 29 -10 31 -21z m287 3 c0
-22 -29 -18 -33 3 -3 14 1 18 15 15 10 -2 18 -10 18 -18z m310 0 c0 -18 -33
-26 -47 -12 -6 6 -7 15 -3 22 10 16 50 8 50 -10z m-35705 -10 c0 -5 -9 -10
-20 -10 -11 0 -20 5 -20 10 0 6 9 10 20 10 11 0 20 -4 20 -10z m300 0 c0 -5
-4 -10 -10 -10 -5 0 -10 5 -10 10 0 6 5 10 10 10 6 0 10 -4 10 -10z m28080 0
c0 -5 -11 -10 -25 -10 -14 0 -25 5 -25 10 0 6 11 10 25 10 14 0 25 -4 25 -10z
m-11283 -76 c-3 -3 -12 -4 -19 -1 -8 3 -5 6 6 6 11 1 17 -2 13 -5z m18750 -35
c15 -15 5 -39 -17 -39 -22 0 -32 24 -17 39 6 6 14 11 17 11 3 0 11 -5 17 -11z
m-42032 -9 c3 -5 -3 -10 -14 -10 -12 0 -21 5 -21 10 0 6 6 10 14 10 8 0 18 -4
21 -10z m365 -1 c23 0 23 -1 5 -9 -11 -5 -39 -9 -62 -9 -33 -1 -43 3 -43 15 0
14 7 15 38 10 20 -3 48 -6 62 -7z m367 -4 c-2 -10 -215 -16 -251 -7 -42 10 9
17 128 17 77 0 125 -4 123 -10z m33823 5 c0 -5 -9 -10 -20 -10 -11 0 -20 5
-20 10 0 6 9 10 20 10 11 0 20 -4 20 -10z m1135 0 c3 -5 1 -10 -4 -10 -6 0
-11 5 -11 10 0 6 2 10 4 10 3 0 8 -4 11 -10z m5301 -1 c7 -12 -15 -31 -31 -26
-5 2 -11 11 -13 20 -4 19 32 24 44 6z m147 5 c11 -11 -5 -34 -24 -34 -12 0
-19 7 -19 20 0 19 28 28 43 14z m152 -14 c0 -19 -32 -25 -51 -9 -12 10 -12 14
-2 21 20 12 53 5 53 -12z m143 3 c5 -18 -28 -29 -38 -12 -5 7 -6 17 -3 22 7
12 35 5 41 -10z m147 -3 c0 -22 -39 -19 -43 3 -3 15 1 18 20 15 12 -2 23 -10
23 -18z m153 3 c5 -17 -26 -29 -40 -15 -6 6 -7 15 -3 22 9 14 37 9 43 -7z
m165 10 c10 -10 -13 -33 -34 -33 -21 0 -33 15 -24 30 7 11 48 14 58 3z
m-50653 -84 c0 -24 -4 -38 -10 -34 -5 3 -10 22 -10 41 0 19 5 34 10 34 6 0 10
-18 10 -41z m6458 -67 c-4 -168 18 -1228 26 -1241 3 -4 1 -45 -3 -91 -5 -45
-5 -95 -1 -111 5 -15 4 -46 -1 -69 -6 -26 -5 -78 1 -143 6 -56 11 -106 10
-112 -1 -9 -7 -160 -9 -227 -1 -16 -5 -28 -10 -28 -18 0 -21 59 -26 500 -3
245 -8 567 -10 715 -7 418 -7 848 0 867 14 35 25 5 23 -60z m25576 29 c3 -5 0
-11 -8 -14 -15 -6 -26 1 -26 15 0 11 27 10 34 -1z m256 -1 c0 -5 -12 -10 -26
-10 -14 0 -23 4 -19 10 3 6 15 10 26 10 10 0 19 -4 19 -10z m17444 -27 c9 -22
-10 -41 -25 -26 -13 13 -5 43 10 43 5 0 12 -8 15 -17z m746 -2 c0 -23 -16 -36
-25 -21 -9 14 1 40 15 40 5 0 10 -9 10 -19z m165 -2 c0 -7 -8 -15 -17 -17 -18
-3 -25 18 -11 32 10 10 28 1 28 -15z m135 1 c0 -11 -4 -20 -10 -20 -5 0 -10 9
-10 20 0 11 5 20 10 20 6 0 10 -9 10 -20z m-900 -6 c0 -8 -5 -12 -10 -9 -6 4
-8 11 -5 16 9 14 15 11 15 -7z m300 2 c0 -8 -4 -18 -10 -21 -5 -3 -10 3 -10
14 0 12 5 21 10 21 6 0 10 -6 10 -14z m-41431 -15 c18 -11 5 -31 -20 -31 -18
0 -26 20 -12 33 8 9 15 9 32 -2z m419 -10 c21 -13 -40 -22 -96 -14 -40 6 -43
8 -22 14 35 10 103 10 118 0z m119 -7 c-3 -3 -12 -4 -19 -1 -8 3 -5 6 6 6 11
1 17 -2 13 -5z m180 0 c-3 -3 -12 -4 -19 -1 -8 3 -5 6 6 6 11 1 17 -2 13 -5z
m-9467 -56 c0 -5 -4 -8 -10 -8 -5 0 -10 10 -10 23 0 18 2 19 10 7 5 -8 10 -18
10 -22z m13607 6 c-3 -3 -12 -4 -19 -1 -8 3 -5 6 6 6 11 1 17 -2 13 -5z
m18438 -44 c19 -8 19 -8 -5 -18 -27 -11 -47 -1 -36 17 8 13 13 13 41 1z
m17694 1 c17 -11 6 -31 -18 -31 -25 0 -33 11 -20 27 13 15 19 16 38 4z m150
-4 c13 -16 5 -27 -21 -27 -18 0 -25 20 -11 33 10 10 19 8 32 -6z m156 -7 c0
-18 -43 -26 -59 -10 -8 8 -7 13 4 20 21 14 55 8 55 -10z m148 6 c7 -18 -1 -26
-25 -26 -11 0 -18 7 -18 20 0 23 35 28 43 6z m155 -8 c3 -13 -3 -18 -22 -18
-27 0 -41 14 -31 31 10 16 49 6 53 -13z m145 8 c7 -18 -1 -26 -25 -26 -11 0
-18 7 -18 20 0 23 35 28 43 6z m155 -9 c3 -12 -3 -17 -21 -17 -31 0 -40 10
-25 27 15 18 42 12 46 -10z m148 12 c3 -6 -1 -18 -9 -27 -13 -12 -19 -13 -31
-3 -8 7 -12 19 -9 27 6 17 39 19 49 3z m-18516 -3 c0 -11 -19 -15 -25 -6 -3 5
1 10 9 10 9 0 16 -2 16 -4z m15945 -16 c-3 -5 -11 -10 -16 -10 -6 0 -7 5 -4
10 3 6 11 10 16 10 6 0 7 -4 4 -10z m-39160 -80 c3 -5 -1 -10 -9 -10 -9 0 -16
5 -16 10 0 6 4 10 9 10 6 0 13 -4 16 -10z m415 0 c0 -5 -7 -10 -15 -10 -8 0
-15 5 -15 10 0 6 7 10 15 10 8 0 15 -4 15 -10z m-9493 -52 c-3 -7 -5 -2 -5 12
0 14 2 19 5 13 2 -7 2 -19 0 -25z m50500 6 c8 -21 -13 -42 -28 -27 -13 13 -5
43 11 43 6 0 13 -7 17 -16z m163 -10 c0 -21 -28 -28 -46 -13 -14 12 -14 14 1
25 20 15 45 8 45 -12z m135 -4 c0 -13 -6 -25 -12 -27 -16 -6 -27 21 -19 43 9
23 31 11 31 -16z m-1045 4 c0 -9 -7 -14 -17 -12 -25 5 -28 28 -4 28 12 0 21
-6 21 -16z m150 2 c0 -8 -5 -18 -11 -22 -14 -8 -33 11 -25 25 10 16 36 13 36
-3z m153 7 c11 -10 -13 -32 -29 -26 -20 8 -17 33 4 33 10 0 22 -3 25 -7z m147
-8 c0 -8 -6 -15 -14 -15 -17 0 -28 14 -19 24 12 12 33 6 33 -9z m141 0 c-1
-15 -24 -12 -29 3 -3 9 2 13 12 10 10 -1 17 -7 17 -13z m-18253 -15 c12 0 22
-4 22 -9 0 -5 -21 -7 -47 -6 -58 3 -56 2 -47 16 3 6 16 8 28 5 11 -3 31 -6 44
-6z m-22456 -54 c-9 -18 -11 -16 -11 19 0 33 1 37 10 21 8 -12 8 -25 1 -40z
m22648 44 c0 -5 -7 -10 -15 -10 -8 0 -15 5 -15 10 0 6 7 10 15 10 8 0 15 -4
15 -10z m-18590 -25 c0 -8 -4 -15 -9 -15 -13 0 -22 16 -14 24 11 11 23 6 23
-9z m-13693 -57 c-3 -8 -6 -5 -6 6 -1 11 2 17 5 13 3 -3 4 -12 1 -19z m50201
-46 c2 -14 -2 -22 -12 -22 -19 0 -29 17 -22 36 8 22 30 12 34 -14z m297 2 c0
-10 -8 -20 -17 -22 -18 -3 -26 27 -11 42 12 11 28 0 28 -20z m-41435 6 c0 -5
-4 -10 -10 -10 -5 0 -10 5 -10 10 0 6 5 10 10 10 6 0 10 -4 10 -10z m40690 -5
c10 -12 9 -16 -5 -21 -19 -8 -40 9 -31 25 10 15 21 14 36 -4z m147 -1 c9 -23
-11 -38 -26 -20 -13 16 -7 36 10 36 5 0 12 -7 16 -16z m163 -4 c0 -15 -7 -20
-24 -20 -14 0 -28 5 -31 10 -10 16 4 30 31 30 17 0 24 -5 24 -20z m295 0 c0
-8 -7 -16 -15 -17 -22 -4 -44 13 -35 26 10 17 50 9 50 -9z m303 -3 c3 -14 -1
-18 -20 -15 -12 2 -24 11 -26 21 -3 14 1 18 20 15 12 -2 24 -11 26 -21z m142
3 c0 -13 -7 -20 -20 -20 -19 0 -27 20 -13 33 13 14 33 6 33 -13z m-18729 -7
c28 -5 30 -7 14 -14 -44 -17 -90 -7 -68 14 8 9 12 9 54 0z m219 -14 c0 -5 -9
-9 -20 -9 -22 0 -27 16 -7 23 15 5 27 -1 27 -14z m-22659 -16 c5 -24 6 -281 2
-296 -12 -45 -25 32 -22 138 0 17 0 60 0 98 0 37 4 67 9 67 6 0 11 -3 11 -7z
m3629 -13 c0 -5 -9 -10 -20 -10 -11 0 -20 5 -20 10 0 6 9 10 20 10 11 0 20 -4
20 -10z m1700 -20 c0 -5 -11 -10 -25 -10 -14 0 -25 5 -25 10 0 6 11 10 25 10
14 0 25 -4 25 -10z m290 0 c0 -5 -6 -10 -14 -10 -8 0 -18 5 -21 10 -3 6 3 10
14 10 12 0 21 -4 21 -10z m34648 -42 c16 -16 15 -25 -4 -32 -24 -9 -47 13 -33
30 14 17 22 17 37 2z m158 -2 c25 -19 7 -39 -32 -34 -48 5 -44 36 7 47 3 0 14
-5 25 -13z m144 -1 c15 -17 5 -35 -20 -35 -22 0 -33 23 -17 39 15 15 22 14 37
-4z m298 -13 c3 -17 -2 -22 -18 -22 -25 0 -38 29 -19 41 20 13 34 6 37 -19z
m-738 3 c0 -9 -9 -15 -25 -15 -16 0 -25 6 -25 15 0 9 9 15 25 15 16 0 25 -6
25 -15z m604 6 c9 -15 -22 -33 -44 -26 -31 10 -25 35 9 35 17 0 32 -4 35 -9z
m302 -2 c7 -11 -12 -29 -31 -29 -19 0 -38 18 -31 29 4 6 18 11 31 11 13 0 27
-5 31 -11z m138 2 c8 -12 -21 -34 -34 -26 -17 11 -11 35 9 35 11 0 22 -4 25
-9z m-2437 -17 c-3 -3 -12 -4 -19 -1 -8 3 -5 6 6 6 11 1 17 -2 13 -5z m-39170
-48 c12 -11 -6 -18 -44 -17 -101 1 -123 3 -123 11 0 16 152 22 167 6z m4118
-6 c-6 -10 -66 -19 -82 -13 -19 7 -16 21 5 25 27 5 82 -3 77 -12z m18732 14
c31 -8 19 -24 -18 -24 -28 0 -37 9 -22 23 8 8 12 8 40 1z m-23277 -14 c0 -5
-9 -10 -20 -10 -11 0 -20 5 -20 10 0 6 9 10 20 10 11 0 20 -4 20 -10z m115 0
c-3 -5 -10 -10 -16 -10 -5 0 -9 5 -9 10 0 6 7 10 16 10 8 0 12 -4 9 -10z m615
0 c0 -11 -236 -7 -247 4 -4 3 51 6 120 6 77 0 127 -4 127 -10z m4050 0 c0 -13
-120 -13 -140 0 -10 7 9 10 63 10 45 0 77 -4 77 -10z m190 0 c0 -5 -24 -10
-54 -10 -30 0 -58 5 -61 10 -4 6 17 10 54 10 34 0 61 -4 61 -10z m1515 0 c4
-6 -8 -10 -30 -10 -22 0 -34 4 -30 10 3 6 17 10 30 10 13 0 27 -4 30 -10z
m17032 4 c-3 -3 -12 -4 -19 -1 -8 3 -5 6 6 6 11 1 17 -2 13 -5z m11043 -4 c0
-5 -11 -10 -25 -10 -14 0 -25 5 -25 10 0 6 11 10 25 10 14 0 25 -4 25 -10z
m665 0 c-8 -13 -45 -13 -65 0 -11 7 -3 10 28 10 26 0 41 -4 37 -10z m4275 0
c0 -5 -9 -10 -20 -10 -11 0 -20 5 -20 10 0 6 9 10 20 10 11 0 20 -4 20 -10z
m1488 -84 c5 -24 -10 -38 -31 -30 -17 6 -23 35 -10 48 12 12 38 1 41 -18z
m146 9 c7 -20 -3 -45 -19 -45 -16 0 -29 35 -20 50 9 15 32 12 39 -5z m144 6
c20 -12 10 -46 -12 -46 -27 0 -46 33 -26 45 18 12 21 12 38 1z m147 -21 c0
-13 -6 -25 -12 -27 -16 -6 -27 21 -19 43 9 23 31 11 31 -16z m303 3 c-2 -17
-9 -28 -18 -28 -9 0 -16 11 -18 28 -3 22 1 27 18 27 17 0 21 -5 18 -27z m157
1 c0 -10 -8 -20 -18 -22 -22 -4 -35 27 -16 39 20 12 34 5 34 -17z m142 10 c3
-8 -1 -22 -10 -31 -13 -14 -16 -13 -22 6 -11 35 19 59 32 25z m-449 -11 c-2
-10 -10 -18 -18 -18 -8 0 -16 8 -18 18 -2 12 3 17 18 17 15 0 20 -5 18 -17z
m-15091 -137 c-3 -45 -2 -162 2 -261 6 -116 5 -188 -1 -205 -9 -23 -10 -24
-17 -5 -4 11 -7 85 -5 165 1 80 2 208 3 285 1 108 4 136 13 121 7 -12 9 -48 5
-100z m-21514 97 c-7 -2 -19 -2 -25 0 -7 3 -2 5 12 5 14 0 19 -2 13 -5z
m29574 1 c-3 -3 -12 -4 -19 -1 -8 3 -5 6 6 6 11 1 17 -2 13 -5z m650 0 c-3 -3
-12 -4 -19 -1 -8 3 -5 6 6 6 11 1 17 -2 13 -5z m490 0 c-3 -3 -12 -4 -19 -1
-8 3 -5 6 6 6 11 1 17 -2 13 -5z m-12402 -19 c0 -5 -10 -11 -22 -13 -16 -2
-23 2 -23 13 0 11 7 15 23 13 12 -2 22 -7 22 -13z m225 -5 c0 -5 -4 -10 -10
-10 -5 0 -10 5 -10 10 0 6 5 10 10 10 6 0 10 -4 10 -10z m-23080 -10 c72 0
111 -3 104 -10 -9 -9 -261 -16 -271 -7 -11 12 10 28 31 23 11 -3 73 -6 136 -6z
m300 -5 c0 -11 -14 -14 -62 -13 -81 2 -97 11 -33 19 87 10 95 10 95 -6z m-740
-5 c0 -5 -7 -10 -15 -10 -8 0 -15 5 -15 10 0 6 7 10 15 10 8 0 15 -4 15 -10z
m130 2 c0 -14 -11 -21 -26 -15 -21 8 -17 23 6 23 11 0 20 -4 20 -8z m10628
-84 c3 -80 -8 -125 -34 -135 -24 -9 -31 6 -38 84 -6 67 -4 73 20 103 15 17 32
29 38 27 6 -2 12 -34 14 -79z m30236 36 c23 -9 20 -31 -4 -39 -28 -9 -54 13
-39 31 13 16 20 17 43 8z m154 -17 c4 -20 -25 -34 -40 -19 -15 15 -1 44 19 40
10 -2 19 -11 21 -21z m146 17 c33 -13 11 -44 -30 -44 -20 0 -30 30 -13 41 17
10 23 11 43 3z m146 -9 c15 -18 5 -35 -21 -35 -12 0 -19 7 -19 18 0 33 20 42
40 17z m300 -11 c0 -19 -28 -30 -42 -16 -8 8 -8 15 1 26 14 17 41 10 41 -10z
m158 14 c7 -7 12 -15 12 -19 0 -14 -32 -19 -51 -8 -16 8 -18 13 -8 25 14 17
31 18 47 2z m145 -2 c8 -20 -20 -43 -35 -28 -14 14 -3 42 16 42 7 0 16 -6 19
-14z m-53113 -107 c0 -59 -4 -99 -10 -99 -6 0 -10 42 -10 106 0 67 4 103 10
99 6 -3 10 -50 10 -106z m11950 62 c0 -21 -3 -53 -7 -72 -5 -28 -7 -30 -14
-14 -16 41 -7 141 12 129 5 -3 9 -22 9 -43z m40720 35 c0 -17 -24 -28 -45 -20
-27 11 -17 34 15 34 19 0 30 -5 30 -14z m-7040 -6 c0 -5 -9 -10 -20 -10 -11 0
-20 5 -20 10 0 6 9 10 20 10 11 0 20 -4 20 -10z m-44790 -54 c0 -11 -19 -15
-25 -6 -3 5 1 10 9 10 9 0 16 -2 16 -4z m10969 -50 c18 -21 -2 -29 -52 -20
l-42 7 30 13 c39 17 50 17 64 0z m-269 -6 c10 -7 -18 -10 -87 -10 -62 0 -103
4 -103 10 0 13 170 13 190 0z m140 0 c18 -6 3 -8 -50 -9 -52 0 -70 2 -60 9 18
11 74 11 110 0z m34681 -13 c-5 -5 -18 -7 -28 -3 -14 6 -15 9 -4 16 19 11 46
1 32 -13z m6003 17 c23 -9 20 -31 -5 -39 -29 -9 -62 21 -39 35 18 11 23 12 44
4z m145 -8 c8 -10 8 -16 -2 -24 -17 -14 -42 2 -34 22 8 20 21 20 36 2z m304 0
c8 -20 -20 -43 -35 -28 -14 14 -3 42 16 42 7 0 16 -6 19 -14z m300 0 c8 -20
-20 -43 -35 -28 -14 14 -3 42 16 42 7 0 16 -6 19 -14z m-29338 -45 c-4 -12
-12 -20 -18 -18 -15 5 -21 33 -12 54 10 27 39 -8 30 -36z m315 34 c17 -20 8
-50 -15 -50 -20 0 -31 25 -21 51 7 18 20 18 36 -1z m158 -24 c3 -27 0 -32 -15
-29 -19 3 -28 30 -19 54 10 26 31 10 34 -25z m167 4 c0 -23 -4 -30 -20 -30
-21 0 -31 25 -21 51 11 28 41 12 41 -21z m21215 25 c-19 -13 -30 -13 -30 0 0
6 10 10 23 10 18 0 19 -2 7 -10z m5200 0 c0 -5 -7 -10 -16 -10 -8 0 -12 5 -9
10 3 6 10 10 16 10 5 0 9 -4 9 -10z m1240 -9 c0 -25 -26 -34 -45 -15 -19 20
-11 34 21 34 17 0 24 -6 24 -19z m145 -1 c0 -22 -39 -19 -43 3 -3 15 1 18 20
15 12 -2 23 -10 23 -18z m455 6 c0 -17 -24 -28 -45 -20 -27 11 -17 34 15 34
19 0 30 -5 30 -14z m300 -1 c0 -9 -9 -15 -25 -15 -16 0 -25 6 -25 15 0 9 9 15
25 15 16 0 25 -6 25 -15z m-29330 -20 c0 -26 -14 -33 -25 -15 -9 14 1 40 15
40 5 0 10 -11 10 -25z m290 0 c0 -15 -6 -25 -14 -25 -16 0 -25 19 -18 38 8 22
32 13 32 -13z m626 10 c4 -8 3 -23 0 -32 -6 -15 -8 -15 -23 -1 -16 17 -12 48
7 48 6 0 13 -7 16 -15z m164 -21 c0 -31 -23 -28 -28 4 -2 15 2 22 12 22 11 0
16 -9 16 -26z m-12771 -49 c-2 -83 -17 -92 -18 -10 0 55 2 75 9 65 5 -8 9 -33
9 -55z m631 25 c0 -5 -4 -10 -10 -10 -5 0 -10 5 -10 10 0 6 5 10 10 10 6 0 10
-4 10 -10z m3043 3 c-7 -2 -19 -2 -25 0 -7 3 -2 5 12 5 14 0 19 -2 13 -5z
m35107 -3 c0 -5 -12 -10 -26 -10 -14 0 -23 4 -19 10 3 6 15 10 26 10 10 0 19
-4 19 -10z m-1003 -52 c-3 -8 -6 -5 -6 6 -1 11 2 17 5 13 3 -3 4 -12 1 -19z
m-15338 3 c12 -8 9 -11 -12 -16 -30 -8 -57 -1 -57 15 0 12 50 13 69 1z m211
-1 c0 -5 -9 -10 -20 -10 -11 0 -20 5 -20 10 0 6 9 10 20 10 11 0 20 -4 20 -10z
m-17030 -10 c0 -5 -9 -10 -20 -10 -11 0 -20 5 -20 10 0 6 9 10 20 10 11 0 20
-4 20 -10z m28780 0 c10 -7 -12 -9 -70 -8 l-85 1 65 7 c36 4 67 7 70 8 3 1 12
-3 20 -8z m425 0 c-3 -5 -13 -10 -21 -10 -8 0 -14 5 -14 10 0 6 9 10 21 10 11
0 17 -4 14 -10z m3755 0 c0 -5 -5 -10 -11 -10 -5 0 -7 5 -4 10 3 6 8 10 11 10
2 0 4 -4 4 -10z m2585 -21 c8 -24 -16 -55 -34 -45 -12 8 -15 49 -4 59 13 14
32 7 38 -14z m-53490 -452 c-3 -488 -2 -463 -11 -454 -9 9 -16 156 -15 332 0
83 0 240 0 350 0 193 5 251 21 225 4 -6 6 -210 5 -453z m52592 419 c-6 -17
-27 -18 -33 -2 -3 9 -3 24 1 34 6 16 7 16 21 -3 8 -10 13 -24 11 -29z m147 28
c7 -19 -1 -34 -19 -34 -18 0 -28 17 -21 35 7 20 32 19 40 -1z m606 -8 c0 -25
-15 -37 -37 -28 -14 4 -18 34 -6 45 3 4 15 7 25 7 12 0 18 -7 18 -24z m-52968
-258 c3 -467 2 -527 -5 -534 -22 -23 -23 9 -18 704 1 61 5 102 11 102 6 0 11
-99 12 -272z m52064 233 c-9 -14 -33 -14 -41 -1 -4 6 -1 18 6 26 11 13 14 13
27 0 8 -8 11 -19 8 -25z m444 19 c0 -11 -7 -20 -15 -20 -8 0 -15 9 -15 20 0
11 7 20 15 20 8 0 15 -9 15 -20z m295 -1 c0 -7 -8 -15 -17 -17 -18 -3 -25 18
-11 32 10 10 28 1 28 -15z m-50488 -31 c-3 -8 -6 -5 -6 6 -1 11 2 17 5 13 3
-3 4 -12 1 -19z m9489 11 c9 -15 -13 -28 -37 -22 -22 6 -25 19 -6 26 21 9 36
7 43 -4z m4314 1 c0 -5 -9 -10 -20 -10 -11 0 -20 5 -20 10 0 6 9 10 20 10 11
0 20 -4 20 -10z m-5053 -6 c-3 -3 -12 -4 -19 -1 -8 3 -5 6 6 6 11 1 17 -2 13
-5z m426 -1 c-13 -2 -33 -2 -45 0 -13 2 -3 4 22 4 25 0 35 -2 23 -4z m159 -5
c-8 -8 -17 -8 -34 0 -22 10 -21 11 12 11 26 1 31 -2 22 -11z m298 -51 c0 -16
-4 -26 -10 -22 -5 3 -10 23 -10 43 0 28 3 33 10 22 5 -8 10 -28 10 -43z
m35675 3 c4 -6 -8 -10 -30 -10 -22 0 -34 4 -30 10 3 6 17 10 30 10 13 0 27 -4
30 -10z m4444 -39 c21 -13 5 -41 -23 -41 -33 0 -44 20 -21 37 22 15 25 16 44
4z m152 -7 c11 -14 10 -18 -5 -29 -22 -17 -46 -9 -46 14 0 34 28 42 51 15z
m154 -14 c0 -18 -43 -26 -57 -12 -16 16 2 33 30 30 16 -2 27 -9 27 -18z m140
0 c0 -8 -10 -16 -22 -18 -18 -3 -23 2 -23 18 0 16 5 21 23 18 12 -2 22 -10 22
-18z m160 0 c0 -10 -12 -16 -32 -18 -28 -3 -33 0 -33 18 0 18 5 21 33 18 20
-2 32 -8 32 -18z m140 0 c0 -18 -33 -26 -47 -12 -6 6 -7 15 -3 22 10 16 50 8
50 -10z m160 0 c0 -18 -43 -26 -57 -12 -16 16 2 33 30 30 16 -2 27 -9 27 -18z
m140 0 c0 -8 -10 -16 -22 -18 -18 -3 -23 2 -23 18 0 16 5 21 23 18 12 -2 22
-10 22 -18z m-40525 0 c0 -5 -4 -10 -10 -10 -5 0 -10 5 -10 10 0 6 5 10 10 10
6 0 10 -4 10 -10z m-772 -69 c-3 -11 -13 -15 -33 -14 -17 1 -83 2 -147 2 -133
0 -165 18 -40 23 195 7 223 6 220 -11z m-618 -1 c0 -5 -7 -10 -15 -10 -8 0
-15 5 -15 10 0 6 7 10 15 10 8 0 15 -4 15 -10z m200 0 c0 -5 -13 -10 -30 -10
-16 0 -30 5 -30 10 0 6 14 10 30 10 17 0 30 -4 30 -10z m12418 -12 c9 -9 12
-69 12 -210 0 -171 -2 -199 -16 -205 -32 -12 -36 13 -35 207 2 221 6 241 39
208z m350 -5 c6 -14 7 -177 2 -391 0 -9 -10 -12 -27 -10 l-28 3 -3 188 c-2
188 3 227 33 227 8 0 18 -8 23 -17z m340 5 c9 -9 12 -69 12 -210 l0 -198 -24
0 c-14 0 -28 5 -32 11 -8 14 -7 386 1 400 8 13 29 11 43 -3z m166 -210 l7
-198 -25 0 c-32 0 -34 14 -35 219 0 169 9 217 34 190 9 -10 15 -72 19 -211z
m169 208 c3 -8 6 -100 6 -204 0 -161 -2 -192 -16 -203 -13 -11 -17 -10 -29 6
-11 14 -14 61 -14 201 0 100 3 189 6 198 8 20 40 21 47 2z m12732 -8 c2 -13 4
-48 3 -78 -2 -30 -2 -161 0 -290 1 -129 2 -248 1 -265 0 -93 2 -152 11 -262
13 -146 22 -1603 11 -1621 -15 -25 -31 13 -29 69 1 30 -2 124 -6 209 -9 173
-9 183 -6 225 2 33 -9 1416 -14 1765 -2 118 -1 227 2 243 5 33 20 35 27 5z
m-25620 -21 c4 -18 1 -46 -5 -62 -11 -28 -13 -28 -20 -10 -16 39 -9 105 11
105 4 0 11 -15 14 -33z m11543 16 c5 -10 8 -101 7 -202 -2 -152 -5 -185 -17
-192 -9 -5 -21 -4 -31 4 -13 10 -16 42 -19 197 -1 102 1 191 5 198 12 18 45
15 55 -5z m172 -13 c8 -33 3 -356 -5 -370 -7 -12 -45 -14 -46 -2 -3 42 -4 380
-1 390 8 22 46 9 52 -18z m331 -55 c7 -93 3 -301 -6 -315 -10 -16 -43 -11 -48
8 -9 32 -5 357 5 375 5 10 17 17 26 15 14 -3 18 -19 23 -83z m343 63 c3 -13 4
-101 3 -197 -2 -156 -4 -175 -20 -185 -37 -22 -43 10 -42 202 1 98 5 184 9
190 13 21 45 14 50 -10z m671 0 c3 -13 4 -104 3 -203 l-3 -180 -27 -3 c-19 -2
-28 2 -31 15 -8 30 -3 367 6 381 14 20 46 14 52 -10z m27049 -23 c27 -28 -10
-69 -40 -44 -17 14 -18 31 -2 47 16 16 23 15 42 -3z m450 -33 c-13 -20 -25
-20 -38 1 -7 10 -5 21 4 32 12 15 15 15 29 0 12 -12 13 -19 5 -33z m455 34
c17 -20 2 -48 -23 -44 -24 3 -34 37 -14 49 18 12 24 11 37 -5z m145 -8 c7 -12
6 -21 -3 -32 -19 -22 -30 -20 -37 8 -11 44 17 60 40 24z m-11847 -10 c-3 -8
-6 -5 -6 6 -1 11 2 17 5 13 3 -3 4 -12 1 -19z m10948 -8 c0 -28 -29 -40 -38
-15 -9 22 3 46 22 43 10 -2 16 -13 16 -28z m159 13 c4 -9 0 -23 -8 -32 -14
-13 -18 -13 -36 4 -15 14 -17 21 -9 32 16 18 46 16 53 -4z m290 -14 c-3 -5
-14 -9 -25 -9 -21 0 -26 26 -6 33 15 5 39 -12 31 -24z m144 4 c-2 -17 -9 -28
-18 -28 -9 0 -16 11 -18 28 -3 22 1 27 18 27 17 0 21 -5 18 -27z m-36683 -32
c7 -12 -12 -24 -25 -16 -11 7 -4 25 10 25 5 0 11 -4 15 -9z m15955 -1 c0 -5
-4 -10 -9 -10 -6 0 -13 5 -16 10 -3 6 1 10 9 10 9 0 16 -4 16 -10z m14285 0
c4 -6 -7 -10 -25 -10 -18 0 -29 4 -25 10 3 6 15 10 25 10 10 0 22 -4 25 -10z
m4532 4 c-3 -3 -12 -4 -19 -1 -8 3 -5 6 6 6 11 1 17 -2 13 -5z m-4674 -11 c-7
-2 -21 -2 -30 0 -10 3 -4 5 12 5 17 0 24 -2 18 -5z m-43912 -66 c-8 -8 -11 -3
-11 19 1 25 2 27 11 11 8 -14 8 -22 0 -30z m10287 10 c2 -12 -3 -17 -17 -17
-12 0 -21 6 -21 13 0 31 32 34 38 4z m-4998 3 c0 -5 -9 -10 -20 -10 -11 0 -20
5 -20 10 0 6 9 10 20 10 11 0 20 -4 20 -10z m3470 0 c0 -5 -7 -10 -15 -10 -8
0 -15 5 -15 10 0 6 7 10 15 10 8 0 15 -4 15 -10z m125 0 c4 -6 -7 -10 -25 -10
-18 0 -29 4 -25 10 3 6 15 10 25 10 10 0 22 -4 25 -10z m280 3 c36 -6 38 -7
15 -14 -14 -4 -53 -7 -87 -8 -50 -1 -63 2 -63 14 0 17 62 20 135 8z m251 -5
c4 -5 -42 -8 -102 -7 -60 1 -99 4 -86 7 32 9 179 9 188 0z m89 3 c9 -15 -12
-22 -40 -15 -20 5 -23 9 -13 15 17 12 45 11 53 0z m22605 -3 c0 -5 -16 -9 -35
-10 -19 -1 -42 -2 -52 -2 -9 -1 -18 5 -20 11 -3 9 10 12 51 10 31 -1 56 -5 56
-9z m184 3 c3 -5 0 -11 -8 -14 -19 -8 -57 3 -50 14 7 12 51 12 58 0z m16121
-1 c-3 -5 -15 -10 -26 -10 -11 0 -17 5 -14 10 3 6 15 10 26 10 11 0 17 -4 14
-10z m2384 -39 c19 -12 6 -41 -19 -41 -13 0 -20 7 -20 18 0 31 14 39 39 23z
m-1040 -14 c13 -16 5 -27 -20 -27 -21 0 -33 15 -24 30 9 14 31 12 44 -3z m151
-7 c0 -21 -33 -29 -45 -10 -9 15 4 30 26 30 12 0 19 -7 19 -20z m148 -2 c4
-20 -32 -25 -58 -8 -13 9 -13 11 0 20 22 15 54 8 58 -12z m146 14 c9 -14 -12
-35 -28 -29 -23 9 -20 37 3 37 11 0 22 -4 25 -8z m152 -3 c6 -10 -11 -29 -26
-29 -3 0 -11 4 -19 9 -17 11 -5 31 19 31 10 0 22 -5 26 -11z m142 -6 c-2 -10
-10 -18 -18 -18 -8 0 -16 8 -18 18 -2 12 3 17 18 17 15 0 20 -5 18 -17z m160
0 c-4 -20 -18 -26 -37 -14 -18 12 -5 31 20 31 14 0 19 -6 17 -17z m-41018 -28
c0 -19 -4 -35 -10 -35 -5 0 -10 16 -10 35 0 19 5 35 10 35 6 0 10 -16 10 -35z
m-9630 -80 c0 -19 -4 -35 -10 -35 -5 0 -10 16 -10 35 0 19 5 35 10 35 6 0 10
-16 10 -35z m32030 -9 c0 -11 -19 -15 -25 -6 -3 5 1 10 9 10 9 0 16 -2 16 -4z
m250 -6 c0 -5 -6 -10 -14 -10 -8 0 -18 5 -21 10 -3 6 3 10 14 10 12 0 21 -4
21 -10z m17615 -20 c0 -27 -22 -39 -31 -16 -8 22 3 49 19 43 6 -2 12 -14 12
-27z m152 14 c8 -20 -9 -36 -30 -28 -20 7 -22 30 -4 37 21 9 27 7 34 -9z m146
4 c6 -19 -3 -38 -18 -38 -15 0 -28 27 -19 41 8 13 32 11 37 -3z m156 -2 c18
-21 -14 -50 -40 -36 -22 12 -24 21 -7 38 16 16 33 15 47 -2z m145 5 c9 -14 -4
-41 -19 -41 -18 0 -28 17 -21 35 6 17 32 20 40 6z m161 -16 c0 -22 -31 -33
-47 -17 -17 17 -1 44 24 40 15 -2 23 -10 23 -23z m143 2 c4 -20 -25 -34 -40
-19 -15 15 -1 44 19 40 10 -2 19 -11 21 -21z m-41310 -5 c2 -7 -7 -12 -22 -12
-27 0 -35 15 -13 23 17 7 30 3 35 -11z m40262 -1 c0 -27 -19 -36 -37 -18 -18
18 -9 37 18 37 12 0 19 -7 19 -19z m-44305 -13 c11 -43 -2 -1612 -12 -1615
-16 -6 -22 47 -13 99 5 26 5 59 1 76 -10 32 -14 1439 -5 1454 10 15 24 8 29
-14z m3625 18 c0 -2 -7 -6 -15 -10 -8 -3 -15 -1 -15 4 0 6 7 10 15 10 8 0 15
-2 15 -4z m307 -2 c-3 -3 -12 -4 -19 -1 -8 3 -5 6 6 6 11 1 17 -2 13 -5z m252
-89 c0 -48 -3 -64 -9 -50 -12 29 -12 154 0 135 5 -8 9 -46 9 -85z m-8902 49
c-3 -3 -12 -4 -19 -1 -8 3 -5 6 6 6 11 1 17 -2 13 -5z m15834 -10 c15 -19 2
-47 -26 -52 -25 -5 -38 13 -31 42 7 30 36 35 57 10z m13136 10 c-3 -3 -12 -4
-19 -1 -8 3 -5 6 6 6 11 1 17 -2 13 -5z m18913 -4 c0 -5 -7 -10 -16 -10 -8 0
-12 5 -9 10 3 6 10 10 16 10 5 0 9 -4 9 -10z m-37723 -22 c-3 -8 -6 -5 -6 6
-1 11 2 17 5 13 3 -3 4 -12 1 -19z m5964 12 c10 -6 19 -15 19 -20 0 -16 -44
-22 -73 -11 -31 12 -35 27 -9 34 30 8 43 7 63 -3z m379 -20 c0 -15 -7 -20 -25
-20 -41 0 -30 37 13 39 6 1 12 -8 12 -19z m-17223 -94 c-4 -9 -11 -16 -16 -16
-15 0 -19 23 -9 50 l10 25 10 -22 c6 -12 8 -29 5 -37z m32033 14 c0 -5 -9 -10
-20 -10 -11 0 -20 5 -20 10 0 6 9 10 20 10 11 0 20 -4 20 -10z m60 0 c0 -5 -7
-7 -15 -4 -8 4 -15 8 -15 10 0 2 7 4 15 4 8 0 15 -4 15 -10z m175 0 c3 -5 -3
-10 -14 -10 -11 0 -23 5 -26 10 -3 6 3 10 14 10 11 0 23 -4 26 -10z m-36002
-6 c11 -11 -3 -24 -18 -18 -8 4 -12 10 -9 15 6 11 18 12 27 3z m47770 -1 c-7
-2 -19 -2 -25 0 -7 3 -2 5 12 5 14 0 19 -2 13 -5z m1557 -3 c0 -5 -4 -10 -10
-10 -5 0 -10 5 -10 10 0 6 5 10 10 10 6 0 10 -4 10 -10z m2725 0 c-3 -5 -13
-10 -21 -10 -8 0 -12 5 -9 10 3 6 13 10 21 10 8 0 12 -4 9 -10z m-38845 -40
c0 -5 -4 -10 -10 -10 -5 0 -10 5 -10 10 0 6 5 10 10 10 6 0 10 -4 10 -10z
m39106 -19 c-7 -10 -66 -20 -66 -11 0 13 14 20 42 20 16 0 27 -4 24 -9z
m-50903 -40 c6 -31 -1 -71 -13 -71 -12 0 -21 47 -14 75 8 33 20 32 27 -4z
m11951 -6 c8 -30 -3 -77 -15 -69 -12 7 -12 94 0 94 5 0 12 -11 15 -25z m6920
3 c12 -19 0 -48 -22 -56 -16 -5 -32 31 -25 57 6 25 30 25 47 -1z m-5662 -40
c-9 -9 -12 -4 -11 23 0 32 1 33 11 11 8 -17 8 -26 0 -34z m-10892 6 c0 -13 -4
-24 -9 -24 -13 0 -24 37 -16 50 10 16 25 1 25 -26z m5273 19 c-7 -2 -19 -2
-25 0 -7 3 -2 5 12 5 14 0 19 -2 13 -5z m8047 -3 c0 -5 -7 -10 -15 -10 -8 0
-15 5 -15 10 0 6 7 10 15 10 8 0 15 -4 15 -10z m153 3 c-7 -2 -19 -2 -25 0 -7
3 -2 5 12 5 14 0 19 -2 13 -5z m757 -3 c0 -5 -13 -10 -30 -10 -16 0 -30 5 -30
10 0 6 14 10 30 10 17 0 30 -4 30 -10z m160 0 c0 -5 -22 -10 -50 -10 -27 0
-50 5 -50 10 0 6 23 10 50 10 28 0 50 -4 50 -10z m140 0 c0 -5 -16 -10 -35
-10 -19 0 -35 5 -35 10 0 6 16 10 35 10 19 0 35 -4 35 -10z m720 0 c0 -6 -60
-10 -160 -10 -100 0 -160 4 -160 10 0 6 60 10 160 10 100 0 160 -4 160 -10z
m1608 -2 c-7 -20 -58 -23 -58 -4 0 11 10 16 31 16 20 0 29 -4 27 -12z m27207
2 c4 -7 -123 -10 -374 -10 -247 0 -381 4 -381 10 0 6 131 10 374 10 239 0 377
-4 381 -10z m5685 -5 c10 -12 10 -18 0 -30 -17 -21 -37 -19 -45 5 -12 37 20
55 45 25z m298 3 c7 -7 8 -17 1 -30 -12 -22 -19 -22 -44 -4 -16 12 -17 16 -6
30 16 19 33 20 49 4z m141 -2 c13 -16 4 -46 -14 -46 -16 0 -26 25 -19 45 8 19
18 19 33 1z m161 -12 c0 -21 -28 -28 -46 -13 -14 12 -14 14 1 25 20 15 45 8
45 -12z m135 -10 c0 -19 -5 -29 -15 -29 -16 0 -25 28 -16 51 10 25 31 10 31
-22z m170 11 c0 -13 -8 -21 -24 -23 -28 -4 -45 17 -29 36 17 20 53 11 53 -13z
m140 -5 c0 -16 -6 -26 -18 -28 -19 -4 -32 20 -23 44 9 25 41 13 41 -16z
m-18760 10 c3 -6 -1 -13 -10 -16 -19 -8 -30 0 -20 15 8 14 22 14 30 1z m12412
4 c-3 -3 -12 -4 -19 -1 -8 3 -5 6 6 6 11 1 17 -2 13 -5z m5451 -16 c-5 -34
-38 -37 -38 -4 0 20 5 26 21 26 15 0 20 -5 17 -22z m-43416 -317 c-3 -74 -8
-126 -12 -115 -10 28 -13 381 -3 407 12 35 21 -138 15 -292z m-9173 189 c-1
-25 2 -486 6 -1026 6 -736 5 -983 -3 -988 -9 -5 -12 77 -12 326 -1 183 -3 655
-6 1048 -3 500 -2 710 6 700 5 -8 10 -35 9 -60z m370 -917 c0 -544 -4 -1004
-9 -1023 -9 -41 -15 1050 -10 1993 0 9 5 17 10 17 7 0 10 -325 9 -987z m11806
958 c8 -14 -10 -22 -30 -15 -13 5 -14 8 -3 15 17 11 26 11 33 0z m-334 -11
c-18 -4 -54 -4 -80 0 -41 7 -37 8 34 8 61 0 72 -2 46 -8z m131 -1 c-15 -5 -36
-6 -55 0 -29 8 -27 9 23 9 44 1 50 -1 32 -9z m96 4 c-10 -2 -28 -2 -40 0 -13
2 -5 4 17 4 22 1 32 -1 23 -4z m4400 -10 c-10 -2 -26 -2 -35 0 -10 3 -2 5 17
5 19 0 27 -2 18 -5z m34702 -13 c-20 -13 -33 -13 -25 0 3 6 14 10 23 10 15 0
15 -2 2 -10z m1274 -23 c8 -13 7 -20 -4 -27 -20 -13 -23 -13 -46 5 -19 15 -19
15 1 30 22 18 34 16 49 -8z m146 8 c10 -12 10 -18 0 -30 -14 -17 -20 -18 -39
-6 -16 10 -6 51 13 51 8 0 19 -7 26 -15z m144 9 c19 -7 21 -40 4 -47 -17 -6
-58 10 -58 22 0 6 8 15 18 20 21 13 17 12 36 5z m616 -14 c14 -26 -20 -46 -50
-30 -23 12 -25 21 -8 38 18 18 46 14 58 -8z m138 -4 c4 -21 -14 -37 -35 -29
-14 5 -18 35 -6 47 12 12 38 1 41 -18z m-50798 7 c0 -5 -5 -15 -10 -23 -8 -12
-10 -11 -10 8 0 12 5 22 10 22 6 0 10 -3 10 -7z m50199 -6 c13 -16 5 -27 -21
-27 -11 0 -18 7 -18 20 0 23 22 27 39 7z m156 -7 c0 -18 -43 -26 -57 -12 -16
16 2 33 30 30 16 -2 27 -9 27 -18z m138 6 c7 -18 -1 -26 -25 -26 -18 0 -25 20
-11 33 11 12 31 8 36 -7z m-18455 -2 c30 -8 28 -20 -4 -28 -29 -8 -50 5 -40
23 8 13 12 13 44 5z m-2268 -13 c0 -6 -4 -12 -9 -15 -13 -8 -42 4 -35 15 7 12
44 12 44 0z m2520 -1 c0 -5 -13 -10 -30 -10 -16 0 -30 5 -30 10 0 6 14 10 30
10 17 0 30 -4 30 -10z m10499 -352 c-1 -164 -4 -300 -9 -303 -14 -8 -16 44
-14 295 3 359 4 383 15 340 4 -19 8 -169 8 -332z m-33159 246 c-10 -47 -14
-54 -22 -40 -10 18 -3 109 9 130 16 25 24 -35 13 -90z m6918 87 c21 -13 10
-46 -16 -49 -24 -4 -38 18 -28 43 6 17 24 19 44 6z m22399 -23 c-3 -7 -5 -2
-5 12 0 14 2 19 5 13 2 -7 2 -19 0 -25z m-22081 11 c9 -15 -14 -29 -48 -29
-28 0 -43 13 -33 30 8 14 72 13 81 -1z m243 2 c10 -7 8 -12 -10 -25 -13 -9
-29 -16 -35 -16 -17 0 -37 27 -29 40 7 12 55 13 74 1z m-7623 -75 c16 -13 17
-15 3 -21 -26 -10 -459 -1 -459 10 0 6 74 11 197 13 109 1 205 4 213 6 8 2 18
4 21 5 3 0 14 -5 25 -13z m-616 -16 c0 -13 -11 -13 -30 0 -12 8 -11 10 8 10
12 0 22 -4 22 -10z m10415 -56 c0 -46 -3 -59 -15 -59 -11 0 -16 13 -18 49 -4
56 3 79 21 73 8 -2 12 -24 12 -63z m3542 51 c14 -25 1 -110 -17 -110 -11 0
-16 13 -18 49 -3 53 2 76 17 76 6 0 14 -7 18 -15z m360 -48 c2 -51 -9 -79 -24
-63 -9 9 -16 94 -9 111 13 34 31 8 33 -48z m26563 53 c12 -7 12 -13 4 -27 -6
-10 -17 -18 -24 -18 -7 0 -18 8 -24 18 -8 14 -8 20 4 27 8 5 17 10 20 10 3 0
12 -5 20 -10z m149 -4 c13 -16 6 -42 -15 -50 -17 -6 -36 27 -28 48 8 20 28 21
43 2z m150 5 c17 -11 8 -39 -15 -48 -8 -3 -23 2 -32 11 -16 16 -16 18 2 32 23
16 26 17 45 5z m151 -16 c0 -7 -6 -18 -14 -24 -20 -17 -44 13 -26 33 13 17 40
10 40 -9z m285 -5 c0 -13 -6 -25 -12 -27 -16 -6 -27 21 -19 43 9 23 31 11 31
-16z m170 6 c0 -30 -31 -44 -51 -24 -15 14 -15 20 -4 33 18 21 55 15 55 -9z
m148 10 c3 -8 0 -22 -7 -32 -18 -24 -46 -11 -46 21 0 20 5 25 24 25 13 0 26
-6 29 -14z m-32305 -60 c3 -51 1 -57 -15 -54 -13 2 -19 14 -21 47 -4 51 3 74
21 69 7 -3 13 -27 15 -62z m127 3 c0 -41 -4 -54 -15 -54 -16 0 -27 73 -16 102
13 33 31 5 31 -48z m130 0 c0 -41 -4 -54 -15 -54 -16 0 -27 73 -16 102 13 33
31 5 31 -48z m405 7 c0 -55 -15 -81 -31 -55 -10 16 -12 93 -2 102 3 4 12 7 20
7 9 0 13 -16 13 -54z m256 30 c10 -41 1 -91 -18 -94 -16 -3 -18 5 -18 57 0 47
3 61 15 61 8 0 17 -11 21 -24z m116 14 c2 -6 2 -31 0 -55 -3 -36 -8 -45 -23
-45 -16 0 -19 8 -19 48 0 27 3 52 7 55 10 10 31 8 35 -3z m413 -50 c0 -42 -3
-55 -15 -55 -10 0 -17 13 -20 40 -7 53 -1 77 19 73 12 -3 16 -16 16 -58z m120
-1 c0 -41 -4 -54 -15 -54 -16 0 -27 73 -16 102 13 33 31 5 31 -48z m123 2 c3
-46 1 -52 -15 -49 -13 2 -19 14 -21 42 -4 46 4 69 21 64 7 -3 13 -26 15 -57z
m420 -3 c-2 -48 -7 -63 -18 -63 -11 0 -16 15 -18 63 -3 57 -1 62 18 62 19 0
21 -5 18 -62z m116 46 c9 -23 7 -77 -3 -93 -17 -26 -41 -4 -41 38 0 48 8 71
25 71 7 0 16 -7 19 -16z m124 -47 c2 -46 0 -57 -13 -57 -12 0 -15 13 -15 61 0
81 24 77 28 -4z m148 48 c10 -25 -10 -90 -29 -93 -14 -3 -17 5 -17 46 0 27 3
52 7 55 11 12 33 7 39 -8z m1949 -46 c0 -41 -4 -54 -15 -54 -16 0 -27 73 -16
102 13 33 31 5 31 -48z m121 37 c9 -38 1 -81 -17 -84 -18 -3 -32 51 -22 87 7
28 31 26 39 -3z m27290 13 c9 -16 -20 -41 -39 -33 -27 10 -21 44 7 44 14 0 28
-5 32 -11z m-31968 -48 c4 -50 -9 -71 -33 -51 -15 13 -21 80 -8 94 19 19 38
-1 41 -43z m490 2 c-3 -54 -23 -67 -38 -27 -15 38 -5 74 21 74 18 0 20 -5 17
-47z m160 -12 c-4 -48 -32 -50 -36 -3 -5 49 4 68 24 51 10 -8 14 -25 12 -48z
m646 12 c6 -49 -3 -66 -34 -60 -11 1 -16 17 -18 55 -3 49 -2 52 21 52 21 0 25
-6 31 -47z m650 39 c2 -4 2 -27 -1 -50 -5 -37 -9 -43 -27 -40 -37 5 -34 98 4
98 10 0 21 -4 24 -8z m149 -29 c2 -21 0 -46 -5 -56 -21 -42 -51 29 -32 77 11
29 32 17 37 -21z m2843 -5 c1 -45 -9 -63 -30 -55 -30 12 -18 101 13 95 11 -2
16 -15 17 -40z m10716 -453 l-6 -30 -6 26 c-4 14 -5 131 -1 260 l6 234 6 -230
c3 -126 4 -243 1 -260z m-15794 441 c4 -30 -12 -48 -35 -39 -14 5 -18 54 -6
67 15 15 38 -1 41 -28z m5577 -4 c0 -46 -19 -44 -23 2 -3 28 0 37 10 34 7 -3
13 -19 13 -36z m8223 21 c2 -8 -6 -13 -22 -13 -26 0 -40 12 -29 24 11 11 46 2
51 -11z m6903 -30 c-9 -16 -10 -14 -11 12 0 21 3 26 11 18 8 -8 8 -16 0 -30z
m-25578 20 c-13 -2 -33 -2 -45 0 -13 2 -3 4 22 4 25 0 35 -2 23 -4z m830 0
c-7 -2 -19 -2 -25 0 -7 3 -2 5 12 5 14 0 19 -2 13 -5z m895 0 c-10 -2 -26 -2
-35 0 -10 3 -2 5 17 5 19 0 27 -2 18 -5z m8442 -7 c0 -8 -4 -18 -10 -21 -5 -3
-10 3 -10 14 0 12 5 21 10 21 6 0 10 -6 10 -14z m-13919 -121 c-9 -40 -9 -40
-10 20 0 33 3 71 7 85 11 40 15 -56 3 -105z m33752 118 c-7 -2 -19 -2 -25 0
-7 3 -2 5 12 5 14 0 19 -2 13 -5z m-50504 -60 c0 -34 -1 -36 -11 -16 -6 12 -8
29 -5 37 11 27 17 18 16 -21z m55751 7 c0 -10 -26 -20 -53 -20 l-22 1 23 19
c21 18 52 18 52 0z m-32030 -4 l35 -13 -39 -17 c-48 -20 -75 -20 -82 -1 -17
42 19 55 86 31z m290 -6 c21 -13 7 -22 -43 -27 -50 -6 -100 13 -76 28 18 12
100 11 119 -1z m229 1 c11 -7 9 -11 -8 -21 -30 -15 -65 -9 -69 13 -3 13 3 17
30 17 18 0 39 -4 47 -9z m4836 -13 c15 -12 33 -35 39 -52 15 -37 14 -272 -1
-287 -13 -13 -124 -19 -145 -8 -16 9 -18 25 -18 137 0 122 11 193 32 220 16
19 62 14 93 -10z m27813 -22 c2 -10 -1 -23 -6 -28 -15 -15 -52 1 -52 22 0 33
52 39 58 6z m140 12 c7 -7 12 -17 12 -24 0 -19 -32 -26 -48 -10 -13 12 -13 18
-2 30 15 19 22 20 38 4z m459 -21 c-6 -19 -67 -22 -67 -3 0 22 31 36 53 24 10
-5 16 -15 14 -21z m144 17 c11 -14 10 -18 -5 -29 -22 -17 -46 -9 -46 14 0 34
28 42 51 15z m143 10 c9 -3 16 -15 16 -25 0 -14 -7 -19 -29 -19 -37 0 -50 19
-26 37 22 15 19 15 39 7z m154 -18 c4 -21 -14 -37 -35 -29 -14 5 -18 35 -6 47
12 12 38 1 41 -18z m-41308 -12 c0 -16 -51 -18 -85 -4 -18 7 -17 8 10 15 17 4
35 8 40 9 17 5 35 -6 35 -20z m29470 -10 c0 -27 -15 -32 -24 -9 -7 19 3 47 15
39 5 -3 9 -16 9 -30z m11098 14 c3 -14 -3 -18 -27 -18 -31 0 -47 13 -36 31 11
16 59 6 63 -13z m140 5 c5 -17 -26 -29 -40 -15 -6 6 -7 15 -3 22 9 14 37 9 43
-7z m-41104 1 c25 -10 8 -24 -30 -24 -24 0 -34 5 -34 15 0 15 35 20 64 9z
m-344 -8 c0 -2 -7 -6 -15 -10 -8 -3 -15 -1 -15 4 0 6 7 10 15 10 8 0 15 -2 15
-4z m4720 -6 c-20 -13 -110 -13 -110 0 0 6 27 10 63 10 44 0 58 -3 47 -10z
m118 3 c-10 -2 -26 -2 -35 0 -10 3 -2 5 17 5 19 0 27 -2 18 -5z m124 -5 c-23
-8 -39 -8 -55 0 -19 9 -13 11 33 10 53 0 54 -1 22 -10z m81 5 c-7 -2 -21 -2
-30 0 -10 3 -4 5 12 5 17 0 24 -2 18 -5z m407 -3 c0 -5 -4 -10 -10 -10 -5 0
-10 5 -10 10 0 6 5 10 10 10 6 0 10 -4 10 -10z m15545 0 c3 -5 -1 -10 -9 -10
-9 0 -16 5 -16 10 0 6 4 10 9 10 6 0 13 -4 16 -10z m2285 -14 c0 -11 -19 -15
-25 -6 -3 5 1 10 9 10 9 0 16 -2 16 -4z m14844 -108 c11 -166 10 -1678 -1
-1689 -19 -19 -23 147 -24 956 -1 895 -2 838 10 831 4 -3 11 -47 15 -98z
m-40388 -474 c2 -306 -1 -566 -5 -577 -12 -33 -20 215 -20 688 -1 395 2 465
17 450 3 -3 7 -256 8 -561z m4401 524 c-3 -7 -5 -2 -5 12 0 14 2 19 5 13 2 -7
2 -19 0 -25z m10644 22 c17 -10 19 -23 19 -160 0 -149 0 -150 -23 -156 -13 -3
-41 -4 -63 -2 l-39 3 -3 149 c-2 101 1 153 9 162 13 16 72 18 100 4z m850 0
c17 -10 19 -23 19 -154 0 -166 -1 -169 -82 -164 l-53 3 -3 150 c-2 132 -1 151
15 162 20 16 77 17 104 3z m-12751 -50 c0 -22 -4 -40 -10 -40 -11 0 -14 63 -3
73 11 12 13 8 13 -33z m22803 13 c3 -10 6 -403 6 -874 1 -735 0 -858 -13 -868
-9 -8 -16 -8 -20 -2 -8 12 -11 1525 -4 1537 3 5 2 36 -3 69 -13 85 17 203 34
138z m16187 -7 c0 -12 -34 -36 -51 -36 -26 0 -24 14 4 28 23 11 47 15 47 8z
m-48620 -37 c0 -5 -4 -9 -10 -9 -5 0 -10 7 -10 16 0 8 5 12 10 9 6 -3 10 -10
10 -16z m13390 11 c0 -5 -9 -10 -20 -10 -11 0 -20 5 -20 10 0 6 9 10 20 10 11
0 20 -4 20 -10z m320 0 c0 -5 -7 -10 -15 -10 -8 0 -15 5 -15 10 0 6 7 10 15
10 8 0 15 -4 15 -10z m80 0 c0 -5 -9 -10 -20 -10 -11 0 -20 5 -20 10 0 6 9 10
20 10 11 0 20 -4 20 -10z m415 0 c3 -5 1 -10 -4 -10 -6 0 -11 5 -11 10 0 6 2
10 4 10 3 0 8 -4 11 -10z m805 0 c0 -5 -7 -10 -15 -10 -8 0 -15 5 -15 10 0 6
7 10 15 10 8 0 15 -4 15 -10z m270 0 c0 -5 -13 -10 -30 -10 -16 0 -30 5 -30
10 0 6 14 10 30 10 17 0 30 -4 30 -10z m34477 -6 c3 -8 -2 -23 -11 -32 -15
-15 -17 -15 -32 0 -21 21 -11 48 16 48 11 0 23 -7 27 -16z m149 1 c7 -18 -12
-45 -32 -45 -14 0 -20 41 -7 53 11 12 33 7 39 -8z m149 -10 c0 -13 -8 -21 -23
-23 -26 -4 -42 25 -21 39 22 14 44 6 44 -16z m141 10 c4 -8 0 -22 -7 -31 -12
-14 -14 -14 -26 2 -9 13 -10 21 -2 31 15 17 28 17 35 -2z m301 -1 c7 -19 -20
-49 -36 -40 -12 8 -15 39 -4 49 12 12 33 7 40 -9z m160 0 c3 -8 -1 -22 -9 -30
-12 -12 -17 -12 -33 -1 -23 17 -14 47 15 47 11 0 23 -7 27 -16z m139 1 c4 -8
0 -22 -7 -31 -11 -13 -14 -13 -27 0 -17 17 -9 46 13 46 9 0 18 -7 21 -15z
m-30844 -33 c12 -45 -3 -126 -24 -130 -12 -2 -18 7 -23 36 -6 36 1 105 12 125
9 16 27 0 35 -31z m30401 32 c9 -9 -4 -34 -18 -34 -16 0 -37 25 -28 33 8 9 38
9 46 1z m-31855 -79 c2 -37 0 -75 -3 -84 -6 -14 -8 -14 -21 3 -14 20 -20 136
-7 150 18 17 28 -6 31 -69z m127 52 c4 -13 5 -48 3 -78 -2 -40 -7 -54 -18 -54
-11 0 -16 13 -18 45 -6 83 18 147 33 87z m533 -52 c3 -75 -11 -106 -28 -61
-11 30 -13 96 -4 121 14 35 29 6 32 -60z m130 4 c2 -61 -9 -101 -24 -86 -10
10 -17 102 -10 132 12 48 31 22 34 -46z m127 38 c10 -54 2 -111 -16 -115 -13
-2 -18 8 -24 45 -10 79 27 143 40 70z m115 14 c13 -25 13 -62 0 -96 -9 -23
-13 -25 -25 -15 -15 13 -22 110 -8 123 11 12 22 8 33 -12z m541 -24 c8 -52 -3
-112 -21 -112 -11 0 -16 15 -18 64 -2 35 -1 70 2 78 10 25 31 8 37 -30z m121
-5 c7 -44 -2 -94 -19 -99 -18 -6 -31 95 -17 132 11 27 28 11 36 -33z m529 14
c4 -15 5 -50 2 -77 -10 -81 -43 -56 -43 31 0 76 26 105 41 46z m135 8 c7 -26
0 -111 -9 -120 -16 -16 -27 15 -27 77 0 54 3 69 15 69 8 0 18 -12 21 -26z
m1972 -38 c3 -60 -13 -100 -29 -74 -10 16 -12 122 -2 132 17 16 28 -5 31 -58z
m124 20 c10 -46 -3 -101 -23 -101 -10 0 -15 15 -17 49 -6 94 24 132 40 52z
m112 28 c3 -9 6 -37 6 -62 0 -84 -33 -97 -45 -19 -10 63 21 127 39 81z m129
-48 c-1 -50 -18 -92 -27 -66 -19 59 -8 146 16 122 6 -6 11 -31 11 -56z m-4805
15 c5 -50 -7 -101 -23 -101 -23 0 -38 64 -25 106 16 46 44 43 48 -5z m496 -30
c1 -46 -19 -76 -34 -51 -11 17 -13 103 -3 114 14 14 36 -23 37 -63z m152 46
c10 -41 1 -102 -16 -102 -22 0 -37 68 -22 100 14 31 30 32 38 2z m650 8 c11
-28 -6 -125 -22 -125 -26 0 -44 82 -28 124 8 20 43 21 50 1z m792 -52 c-3 -74
-22 -96 -30 -36 -7 54 2 103 19 103 11 0 13 -14 11 -67z m133 29 c9 -42 -3
-97 -21 -97 -18 0 -33 60 -25 102 8 44 36 41 46 -5z m385 23 c7 -17 -14 -85
-26 -85 -17 0 -29 78 -13 93 11 12 33 8 39 -8z m8314 -22 c0 -27 -3 -34 -11
-26 -7 7 -9 23 -5 37 9 37 16 32 16 -11z m-12750 12 c10 -12 10 -18 0 -30 -26
-32 -68 -8 -54 30 4 8 14 15 24 15 10 0 23 -7 30 -15z m2195 -51 c0 -46 -3
-59 -15 -59 -18 0 -25 42 -15 92 10 56 30 34 30 -33z m1583 31 c5 -58 -40 -75
-54 -20 -9 36 2 57 28 53 17 -2 24 -10 26 -33z m2980 -10 c4 -43 -13 -69 -28
-45 -11 17 -13 74 -3 84 15 14 28 -2 31 -39z m15629 8 c-3 -10 -5 -4 -5 12 0
17 2 24 5 18 2 -7 2 -21 0 -30z m-29464 -4 c-7 -7 -20 -8 -30 -5 -17 7 -17 8
1 22 23 17 48 2 29 -17z m7607 11 c0 -14 -20 -22 -37 -16 -12 5 -13 9 -3 21
11 14 40 10 40 -5z m1158 -13 c3 -22 -1 -27 -17 -27 -17 0 -21 6 -21 31 0 24
4 30 18 27 10 -2 18 -14 20 -31z m-9138 13 c0 -5 -13 -10 -30 -10 -16 0 -30 5
-30 10 0 6 14 10 30 10 17 0 30 -4 30 -10z m7750 0 c0 -5 -9 -10 -21 -10 -11
0 -17 5 -14 10 3 6 13 10 21 10 8 0 14 -4 14 -10z m6957 -37 c-4 -17 -4 -17
-12 0 -4 9 -4 25 0 35 8 16 8 16 12 0 3 -10 3 -26 0 -35z m8458 37 c3 -5 -3
-10 -15 -10 -12 0 -18 5 -15 10 3 6 10 10 15 10 5 0 12 -4 15 -10z m11765 0
c0 -5 -7 -10 -16 -10 -8 0 -12 5 -9 10 3 6 10 10 16 10 5 0 9 -4 9 -10z
m-34727 -7 c-7 -2 -19 -2 -25 0 -7 3 -2 5 12 5 14 0 19 -2 13 -5z m22714 1
c-3 -3 -12 -4 -19 -1 -8 3 -5 6 6 6 11 1 17 -2 13 -5z m-8486 -37 c-13 -13
-26 -3 -16 12 3 6 11 8 17 5 6 -4 6 -10 -1 -17z m-13907 -22 c8 -33 -3 -82
-15 -63 -11 17 -11 88 0 88 5 0 12 -11 15 -25z m31545 -120 c1 -74 -2 -105 -9
-95 -5 8 -9 67 -9 130 0 73 4 108 9 95 5 -11 9 -69 9 -130z m-27469 125 c0 -5
-4 -10 -10 -10 -5 0 -10 5 -10 10 0 6 5 10 10 10 6 0 10 -4 10 -10z m38617 -6
c-3 -3 -12 -4 -19 -1 -8 3 -5 6 6 6 11 1 17 -2 13 -5z m-23007 -50 c0 -12 -6
-27 -14 -33 -20 -17 -30 18 -16 55 9 23 13 25 20 14 6 -8 10 -25 10 -36z
m20438 12 c5 -25 -12 -39 -37 -31 -20 6 -28 34 -14 49 13 13 48 1 51 -18z
m143 8 c11 -14 10 -18 -5 -30 -22 -16 -36 -10 -36 15 0 33 20 40 41 15z m149
0 c18 -21 -6 -46 -38 -38 -26 7 -29 29 -4 43 23 14 27 13 42 -5z m150 -15 c0
-12 -7 -19 -20 -19 -19 0 -28 28 -14 43 11 11 34 -5 34 -24z m298 7 c4 -21
-14 -37 -35 -29 -14 5 -18 35 -6 47 12 12 38 1 41 -18z m152 9 c15 -18 5 -35
-21 -35 -24 0 -37 29 -18 41 19 12 25 11 39 -6z m148 -9 c4 -21 -14 -37 -35
-29 -14 5 -18 35 -6 47 12 12 38 1 41 -18z m-2198 4 c0 -5 -5 -10 -11 -10 -5
0 -7 5 -4 10 3 6 8 10 11 10 2 0 4 -4 4 -10z m1755 -10 c0 -18 -33 -26 -47
-12 -6 6 -7 15 -3 22 10 16 50 8 50 -10z m-6305 -10 c0 -5 -4 -10 -9 -10 -6 0
-13 5 -16 10 -3 6 1 10 9 10 9 0 16 -4 16 -10z m-11941 -56 c2 -2 -11 -4 -30
-4 -19 0 -44 -3 -56 -6 -17 -5 -23 -2 -23 10 0 14 8 16 53 10 28 -4 54 -8 56
-10z m161 6 c0 -5 -9 -10 -21 -10 -11 0 -17 5 -14 10 3 6 13 10 21 10 8 0 14
-4 14 -10z m-23395 -10 c3 -5 1 -10 -4 -10 -6 0 -11 5 -11 10 0 6 2 10 4 10 3
0 8 -4 11 -10z m612 -4 c-2 -6 -13 -11 -25 -10 -12 0 -45 1 -73 2 -76 3 -49
20 31 20 47 -1 70 -4 67 -12z m788 4 c3 -5 -3 -10 -14 -10 -12 0 -21 5 -21 10
0 6 6 10 14 10 8 0 18 -4 21 -10z m38140 0 c-3 -5 -16 -10 -28 -10 -18 0 -19
2 -7 10 20 13 43 13 35 0z m-39237 -7 c-10 -2 -26 -2 -35 0 -10 3 -2 5 17 5
19 0 27 -2 18 -5z m4515 0 c-7 -2 -19 -2 -25 0 -7 3 -2 5 12 5 14 0 19 -2 13
-5z m2890 -14 c20 -7 37 -16 37 -19 0 -10 -89 -32 -105 -26 -18 7 -20 52 -2
59 13 6 16 5 70 -14z m306 2 c8 -5 11 -16 8 -25 -10 -27 -153 -19 -144 8 7 20
110 33 136 17z m295 -11 c16 -16 -6 -31 -42 -29 -20 1 -51 -1 -67 -5 -21 -4
-37 -2 -50 9 -20 15 -20 15 0 30 16 13 34 15 85 9 36 -3 69 -10 74 -14z
m16857 -53 c-8 -20 -8 -20 -14 4 -3 13 -3 36 0 49 l7 25 7 -28 c4 -16 4 -38 0
-50z m-24407 37 c9 -34 -2 -73 -15 -53 -11 18 -12 79 0 79 5 0 12 -12 15 -26z
m19680 10 c9 -24 7 -52 -4 -59 -12 -7 -33 43 -26 62 7 18 23 16 30 -3z m14754
-22 c3 -10 -66 -13 -360 -11 -199 1 -372 4 -383 8 -11 3 135 8 325 11 430 7
413 8 418 -8z m5832 3 c10 -12 10 -18 0 -30 -19 -23 -40 -18 -40 8 0 38 18 48
40 22z m598 -14 c-2 -9 -13 -17 -26 -19 -16 -3 -22 2 -22 16 0 11 6 22 13 25
20 7 38 -4 35 -22z m162 -1 c0 -22 -19 -30 -42 -18 -36 18 -9 53 30 40 6 -2
12 -12 12 -22z m138 7 c4 -20 -25 -34 -40 -19 -15 15 -1 44 19 40 10 -2 19
-11 21 -21z m-39901 -9 c-3 -8 -6 -5 -6 6 -1 11 2 17 5 13 3 -3 4 -12 1 -19z
m33853 11 c0 -5 -75 -9 -166 -9 -105 0 -163 4 -159 10 7 12 325 11 325 -1z
m70 1 c0 -5 -9 -10 -20 -10 -11 0 -20 5 -20 10 0 6 9 10 20 10 11 0 20 -4 20
-10z m495 0 c4 -6 -8 -10 -29 -10 -20 0 -36 5 -36 10 0 6 13 10 29 10 17 0 33
-4 36 -10z m70 0 c4 -6 -5 -10 -20 -10 -15 0 -24 4 -20 10 3 6 12 10 20 10 8
0 17 -4 20 -10z m215 0 c0 -5 -9 -10 -20 -10 -11 0 -20 5 -20 10 0 6 9 10 20
10 11 0 20 -4 20 -10z m4155 -9 c0 -8 -8 -19 -17 -25 -22 -13 -44 5 -34 29 7
20 51 16 51 -4z m300 -1 c0 -8 -8 -16 -18 -18 -21 -4 -49 16 -41 30 9 15 59 5
59 -12z m153 3 c-2 -10 -12 -18 -23 -18 -11 0 -21 8 -23 18 -3 13 3 17 23 17
20 0 26 -4 23 -17z m149 1 c5 -15 -20 -24 -37 -14 -7 4 -9 13 -5 19 8 14 37
11 42 -5z m-2937 -76 c0 -57 -3 -78 -10 -68 -17 27 -12 150 7 150 2 0 3 -37 3
-82z m807 76 c-3 -3 -12 -4 -19 -1 -8 3 -5 6 6 6 11 1 17 -2 13 -5z m-31820
-185 c3 -190 -11 -259 -19 -94 -5 94 -4 202 1 254 0 8 4 11 8 7 4 -4 8 -79 10
-167z m32129 126 c-21 -16 -56 -20 -56 -7 0 16 13 22 44 22 29 -1 30 -1 12
-15z m-16431 -19 c0 -14 -98 -12 -103 2 -2 8 12 11 50 9 29 -1 53 -6 53 -11z
m165 0 c0 -11 -19 -15 -25 -6 -3 5 1 10 9 10 9 0 16 -2 16 -4z m1773 -575 c1
-375 -1 -571 -8 -571 -7 0 -10 194 -10 563 0 526 1 594 11 584 3 -2 5 -261 7
-576z m-25292 544 c0 -5 -9 -11 -21 -13 -20 -3 -27 8 -13 22 10 9 34 3 34 -9z
m124 5 c3 -5 -1 -10 -10 -10 -9 0 -13 5 -10 10 3 6 8 10 10 10 2 0 7 -4 10
-10z m249 1 c3 -5 -12 -11 -33 -13 -45 -4 -61 -1 -61 13 0 12 87 12 94 0z
m366 -1 c0 -5 -7 -10 -15 -10 -8 0 -15 5 -15 10 0 6 7 10 15 10 8 0 15 -4 15
-10z m1410 -5 c0 -8 -4 -15 -10 -15 -5 0 -10 7 -10 15 0 8 5 15 10 15 6 0 10
-7 10 -15z m-1633 -1 c-3 -3 -12 -4 -19 -1 -8 3 -5 6 6 6 11 1 17 -2 13 -5z
m34128 -4 c4 -6 -10 -10 -34 -10 -23 0 -41 5 -41 10 0 6 15 10 34 10 19 0 38
-4 41 -10z m240 -4 c11 -2 -32 -4 -95 -4 -63 0 -107 3 -97 6 16 7 147 5 192
-2z m175 4 c0 -5 -9 -10 -20 -10 -11 0 -20 5 -20 10 0 6 9 10 20 10 11 0 20
-4 20 -10z m250 0 c0 -5 -16 -10 -35 -10 -19 0 -35 5 -35 10 0 6 16 10 35 10
19 0 35 -4 35 -10z m-25562 -83 c2 -61 0 -77 -11 -77 -22 0 -37 103 -21 145
14 37 29 5 32 -68z m128 57 c7 -28 0 -121 -10 -131 -11 -12 -19 6 -24 56 -5
55 3 101 18 101 5 0 13 -11 16 -26z m534 -54 c0 -71 -11 -95 -29 -61 -22 41
-6 152 20 136 5 -4 9 -37 9 -75z m793 29 c10 -49 -5 -103 -26 -97 -13 5 -23
109 -13 135 11 27 31 7 39 -38z m119 10 c14 -64 -10 -144 -33 -108 -10 17 -12
133 -2 143 13 13 28 -1 35 -35z m22717 -421 c1 -268 -3 -419 -9 -423 -7 -4
-10 145 -9 442 1 246 5 437 9 423 4 -14 8 -213 9 -442z m-33159 425 c0 -16 2
-74 4 -130 2 -56 -1 -107 -5 -115 -6 -8 -9 1 -10 27 -1 22 -3 86 -5 143 -2 60
1 102 7 102 5 0 9 -12 9 -27z m8760 -44 c0 -46 -8 -69 -25 -69 -26 0 -35 83
-14 122 11 21 12 21 25 3 8 -10 14 -36 14 -56z m368 6 c3 -61 -11 -93 -28 -65
-11 17 -13 90 -4 115 13 32 29 7 32 -50z m530 0 c3 -61 -11 -93 -28 -65 -11
17 -13 90 -4 115 13 32 29 7 32 -50z m126 49 c9 -23 7 -97 -3 -113 -17 -27
-31 1 -31 65 0 48 3 64 14 64 8 0 17 -7 20 -16z m774 -44 c4 -67 -3 -87 -23
-70 -15 13 -22 110 -8 124 16 16 28 -4 31 -54z m147 3 c7 -38 -13 -72 -34 -59
-12 8 -15 98 -4 109 12 12 31 -13 38 -50z m148 23 c11 -34 0 -96 -17 -96 -17
0 -26 22 -26 65 0 67 25 85 43 31z m121 18 c10 -27 7 -122 -5 -130 -19 -12
-34 16 -34 64 0 70 23 109 39 66z m121 -24 c8 -48 -2 -100 -20 -100 -23 0 -33
69 -15 114 14 37 27 32 35 -14z m128 -5 c7 -46 -6 -100 -22 -91 -13 9 -22 66
-15 103 9 48 30 41 37 -12z m1979 -4 c8 -47 -5 -95 -25 -89 -13 5 -22 99 -13
125 11 26 31 7 38 -36z m116 -12 c3 -61 -11 -95 -28 -69 -11 17 -13 90 -4 115
12 31 29 8 32 -46z m120 12 c4 -55 -5 -94 -20 -89 -32 11 -31 142 1 136 11 -2
17 -16 19 -47z m120 -20 c-2 -28 -7 -52 -13 -54 -17 -4 -28 65 -16 97 17 43
33 19 29 -43z m6122 37 c-1 -28 -2 -30 -11 -15 -6 10 -8 25 -5 33 9 24 16 16
16 -18z m20584 17 c19 -19 10 -45 -15 -45 -13 0 -19 7 -19 23 0 20 7 37 16 37
1 0 9 -7 18 -15z m906 -20 c0 -24 -16 -35 -37 -27 -16 5 -17 34 -2 49 17 17
39 4 39 -22z m-31762 -11 c2 -17 -2 -43 -8 -60 -11 -28 -12 -29 -26 -9 -14 19
-12 74 3 98 10 16 28 0 31 -29z m496 -13 c7 -34 6 -45 -6 -58 -22 -21 -38 -8
-38 30 0 82 29 100 44 28z m1464 4 c4 -48 -19 -87 -39 -67 -13 12 -16 83 -4
103 15 24 40 3 43 -36z m28752 30 c15 -18 5 -35 -20 -35 -10 0 -22 5 -25 10
-7 11 12 40 25 40 4 0 13 -7 20 -15z m305 -10 c0 -22 -31 -33 -47 -17 -17 17
-1 44 24 40 15 -2 23 -10 23 -23z m140 -1 c0 -10 -8 -20 -17 -22 -18 -3 -26
27 -11 42 12 11 28 0 28 -20z m158 12 c10 -26 -34 -49 -48 -26 -8 13 13 40 30
40 7 0 15 -6 18 -14z m141 -2 c8 -21 -11 -45 -30 -37 -14 5 -19 34 -7 46 12
12 31 7 37 -9z m161 -9 c0 -22 -31 -33 -47 -17 -17 17 -1 44 24 40 15 -2 23
-10 23 -23z m-30980 -35 c0 -33 -4 -45 -15 -45 -11 0 -16 13 -18 48 -3 42 -1
48 15 45 14 -3 18 -13 18 -48z m3639 34 c11 -29 7 -74 -8 -74 -16 0 -26 21
-26 54 0 36 23 50 34 20z m-5060 -29 c7 -36 2 -55 -14 -55 -16 0 -31 39 -24
65 9 36 31 31 38 -10z m624 -16 c-2 -22 -8 -34 -18 -34 -19 0 -25 38 -10 66
16 29 32 11 28 -32z m4950 -2 c-2 -12 -7 -22 -13 -22 -12 0 -19 41 -10 63 6
16 7 16 16 -1 6 -10 9 -28 7 -40z m-7257 33 c10 -6 19 -17 19 -24 0 -17 -54
-40 -75 -32 -15 5 -21 47 -8 59 10 10 42 8 64 -3z m538 -9 l55 -19 -40 -12
c-28 -8 -47 -9 -66 -1 -29 11 -37 36 -15 44 6 3 12 6 12 6 0 0 24 -8 54 -18z
m-228 -2 c28 -15 14 -29 -29 -28 -46 1 -84 14 -62 22 56 20 65 20 91 6z m6667
-17 c3 -17 -2 -22 -17 -22 -22 0 -25 8 -15 35 9 22 28 14 32 -13z m8482 -32
c0 -5 -7 -10 -15 -10 -8 0 -15 5 -15 10 0 6 7 10 15 10 8 0 15 -4 15 -10z
m-22546 -51 c-7 -12 -54 -12 -54 0 0 11 30 19 47 13 7 -2 10 -8 7 -13z m19849
0 c7 -11 4 -24 -9 -44 -17 -27 -18 -27 -27 -7 -12 25 -1 75 15 70 6 -2 16 -11
21 -19z m-20223 1 c0 -5 -16 -10 -35 -10 -19 0 -35 5 -35 10 0 6 16 10 35 10
19 0 35 -4 35 -10z m40787 -1 c16 -16 5 -39 -18 -39 -12 0 -19 7 -19 18 0 31
17 41 37 21z m458 -15 c0 -12 -8 -20 -22 -22 -17 -3 -23 2 -23 16 0 20 16 33
35 28 6 -2 10 -11 10 -22z m145 0 c0 -19 -28 -30 -42 -16 -8 8 -8 15 1 26 14
17 41 10 41 -10z m155 1 c0 -13 -8 -21 -23 -23 -26 -4 -42 25 -21 39 22 14 44
6 44 -16z m143 1 c4 -21 -14 -37 -35 -29 -14 5 -18 35 -6 47 12 12 38 1 41
-18z m-1043 4 c9 -15 -14 -40 -31 -33 -22 8 -18 43 5 43 11 0 23 -5 26 -10z
m293 -7 c-4 -20 -18 -26 -37 -14 -18 12 -5 31 20 31 14 0 19 -6 17 -17z m150
0 c-5 -26 -38 -29 -38 -4 0 15 6 21 21 21 14 0 19 -5 17 -17z m-13278 -100 c0
-29 -4 -53 -9 -53 -11 0 -23 92 -15 115 11 28 24 -4 24 -62z m-22720 57 c0 -5
-4 -10 -10 -10 -5 0 -10 5 -10 10 0 6 5 10 10 10 6 0 10 -4 10 -10z m24759
-65 c0 -22 -4 -49 -9 -60 -6 -17 -9 -14 -15 18 -9 46 2 117 16 96 5 -8 8 -32
8 -54z m-21855 6 c17 -19 17 -20 -3 -30 -44 -24 -98 1 -71 34 17 21 54 19 74
-4z m14936 9 c13 -9 13 -11 0 -20 -8 -5 -18 -10 -22 -10 -11 0 -20 19 -13 30
8 12 16 12 35 0z m236 -1 c10 -18 -10 -25 -61 -21 -67 6 -48 19 42 31 6 0 15
-4 19 -10z m-15731 -24 c0 -11 -8 -21 -17 -23 -14 -3 -18 3 -18 23 0 20 4 26
18 23 9 -2 17 -12 17 -23z m305 0 c0 -10 -11 -15 -35 -15 -24 0 -35 5 -35 15
0 10 11 15 35 15 24 0 35 -5 35 -15z m-437 -387 c4 -347 0 -468 -16 -421 -9
25 -17 781 -9 802 15 39 21 -56 25 -381z m33494 338 c-4 -9 -16 -16 -27 -16
-15 0 -20 7 -20 24 0 13 6 26 13 29 18 7 41 -19 34 -37z m888 13 c0 -15 -7
-25 -18 -27 -22 -4 -33 24 -17 43 18 21 35 13 35 -16z m-41156 -67 c2 -47 -15
-31 -23 23 -8 53 5 87 15 40 4 -16 7 -45 8 -63z m40116 63 c0 -22 -31 -33 -47
-17 -17 17 -1 44 24 40 15 -2 23 -10 23 -23z m300 0 c0 -22 -31 -33 -47 -17
-17 17 -1 44 24 40 15 -2 23 -10 23 -23z m145 5 c0 -13 -7 -20 -20 -20 -19 0
-27 20 -13 33 13 14 33 6 33 -13z m155 -5 c0 -22 -22 -30 -44 -16 -12 8 -13
12 -1 26 17 21 45 15 45 -10z m143 2 c4 -20 -25 -34 -40 -19 -15 15 -1 44 19
40 10 -2 19 -11 21 -21z m159 7 c5 -14 -11 -34 -27 -34 -3 0 -11 4 -19 9 -19
12 -6 41 19 41 11 0 23 -7 27 -16z m-41519 -11 c-21 -2 -55 -2 -75 0 -21 2 -4
4 37 4 41 0 58 -2 38 -4z m5082 -3 c17 -10 14 -15 -17 -24 -22 -7 -39 7 -28
24 8 12 25 13 45 0z m308 -8 c2 -8 -8 -12 -27 -12 -33 0 -42 16 -13 23 23 6
35 3 40 -11z m-208 -2 c0 -5 -9 -10 -20 -10 -11 0 -20 5 -20 10 0 6 9 10 20
10 11 0 20 -4 20 -10z m110 0 c0 -5 -13 -10 -30 -10 -16 0 -30 5 -30 10 0 6
14 10 30 10 17 0 30 -4 30 -10z m687 3 c-10 -10 -147 -11 -153 -1 -3 4 32 8
77 8 45 0 79 -3 76 -7z m173 -3 c0 -5 -4 -10 -9 -10 -6 0 -13 5 -16 10 -3 6 1
10 9 10 9 0 16 -4 16 -10z m33055 0 c-3 -5 -13 -10 -21 -10 -8 0 -12 5 -9 10
3 6 13 10 21 10 8 0 12 -4 9 -10z m3787 -12 c-9 -9 -15 -9 -24 0 -9 9 -7 12
12 12 19 0 21 -3 12 -12z m-59265 -30 c-3 -7 -5 -2 -5 12 0 14 2 19 5 13 2 -7
2 -19 0 -25z m43440 -15 c-3 -10 -5 -4 -5 12 0 17 2 24 5 18 2 -7 2 -21 0 -30z
m-30865 -80 c-2 -148 -1 -140 -12 -123 -9 15 -13 208 -3 223 12 20 16 -8 15
-100z m31465 20 c-2 -16 -4 -5 -4 22 0 28 2 40 4 28 2 -13 2 -35 0 -50z m7678
57 c3 -5 -3 -10 -15 -10 -12 0 -18 5 -15 10 3 6 10 10 15 10 5 0 12 -4 15 -10z
m225 0 c0 -5 -9 -10 -20 -10 -11 0 -20 5 -20 10 0 6 9 10 20 10 11 0 20 -4 20
-10z m-12702 -36 c42 -9 11 -24 -48 -24 -57 0 -86 14 -60 30 12 8 52 5 108 -6z
m177 -3 c3 -5 0 -13 -5 -16 -16 -10 -62 4 -55 15 8 13 52 13 60 1z m17473 -35
c-4 -30 -52 -30 -56 1 -2 14 3 23 15 25 29 7 44 -3 41 -26z m147 4 c0 -18 -6
-26 -22 -28 -26 -4 -43 35 -22 49 24 15 44 5 44 -21z m153 6 c5 -25 -12 -39
-37 -31 -26 8 -27 30 -3 44 22 13 36 9 40 -13z m452 -5 c0 -16 -27 -31 -44
-25 -19 7 -22 40 -3 47 14 5 47 -10 47 -22z m284 23 c20 -8 21 -28 2 -43 -18
-15 -46 -4 -46 18 0 29 14 37 44 25z m-45572 -16 c-9 -9 -15 -9 -24 0 -9 9 -7
12 12 12 19 0 21 -3 12 -12z m8992 3 c7 -11 -22 -23 -35 -15 -5 3 -7 10 -4 15
8 12 32 12 39 0z m311 -1 c3 -5 -3 -10 -15 -10 -12 0 -18 5 -15 10 3 6 10 10
15 10 5 0 12 -4 15 -10z m35681 -1 c8 -14 -21 -43 -35 -35 -19 12 -13 46 8 46
11 0 23 -5 27 -11z m154 -9 c0 -15 -7 -20 -29 -20 -17 0 -33 5 -36 10 -11 17
5 30 36 30 22 0 29 -5 29 -20z m300 0 c0 -15 -7 -20 -24 -20 -14 0 -28 5 -31
10 -10 16 4 30 31 30 17 0 24 -5 24 -20z m-34091 -9 l34 -18 -26 -17 c-35 -24
-71 -18 -75 13 -2 13 2 28 10 32 17 11 17 11 57 -10z m-7444 -1 c-3 -5 -12 -7
-20 -3 -21 7 -19 13 6 13 11 0 18 -4 14 -10z m355 0 c0 -5 -6 -10 -14 -10 -8
0 -18 5 -21 10 -3 6 3 10 14 10 12 0 21 -4 21 -10z m7409 -6 c2 -2 1 -10 -2
-19 -8 -19 -76 -20 -103 -1 -18 14 -18 15 11 21 17 4 35 8 40 10 10 3 46 -4
54 -11z m216 2 c18 -13 18 -14 -3 -25 -29 -15 -69 -14 -75 3 -13 32 43 48 78
22z m26975 -36 c0 -6 -131 -9 -365 -9 -212 0 -365 5 -365 10 0 5 152 9 365 9
234 0 365 -4 365 -10z m-34440 -35 c0 -8 -4 -17 -10 -20 -6 -4 -10 5 -10 20 0
15 4 24 10 20 6 -3 10 -12 10 -20z m29310 -47 c-7 -19 -9 -15 -9 22 0 37 2 41
9 23 6 -14 6 -32 0 -45z m-46083 20 c-3 -8 -6 -5 -6 6 -1 11 2 17 5 13 3 -3 4
-12 1 -19z m38534 -337 c1 -193 -2 -355 -5 -359 -13 -12 -27 23 -21 53 3 17 6
170 5 340 -1 271 3 336 17 322 1 -2 3 -162 4 -356z m-9101 339 c36 -19 41 -75
34 -372 -4 -174 -10 -288 -17 -296 -6 -8 -25 -12 -46 -10 l-36 3 -6 180 c-4
99 -10 234 -13 300 l-7 120 32 43 c34 47 33 46 59 32z m7465 -10 c0 -22 -29
-18 -33 3 -3 14 1 18 15 15 10 -2 18 -10 18 -18z m-10561 -23 c3 -12 6 -59 6
-103 0 -86 -11 -109 -47 -102 -37 7 -42 207 -5 227 22 12 39 4 46 -22z m2358
11 c10 -18 12 -94 10 -333 -3 -298 -4 -311 -24 -327 -25 -22 -32 -22 -51 -3
-12 11 -16 61 -18 257 -5 334 -3 396 11 413 19 22 57 18 72 -7z m243 -1 c8
-13 15 -39 16 -58 4 -74 -10 -590 -16 -599 -10 -17 -54 -11 -64 8 -5 9 -11
155 -13 322 -3 322 0 350 42 350 11 0 26 -10 35 -23z m1453 6 c5 -10 12 -52
15 -95 6 -66 4 -79 -13 -100 -17 -21 -20 -21 -34 -8 -22 21 -27 179 -7 203 17
22 28 21 39 0z m8783 2 c0 -5 -9 -11 -21 -13 -20 -3 -27 8 -13 22 10 9 34 3
34 -9z m-13704 -26 c8 -16 9 -49 5 -99 -6 -69 -9 -75 -31 -78 -34 -5 -41 12
-41 100 0 57 4 81 16 93 20 20 36 15 51 -16z m439 -80 c-2 -64 -8 -94 -17
-100 -19 -12 -25 -11 -43 7 -12 11 -16 36 -16 94 0 69 3 81 22 94 15 11 26 12
40 5 16 -9 18 -20 14 -100z m196 94 c14 -13 18 -31 18 -90 0 -82 -11 -113 -40
-113 -29 0 -40 31 -40 114 0 54 4 79 16 90 19 20 23 20 46 -1z m457 -20 c28
-99 -1 -219 -43 -184 -13 11 -16 33 -16 111 0 53 3 100 7 103 18 19 43 5 52
-30z m695 15 c16 -26 20 -152 5 -180 -13 -23 -56 -24 -63 0 -2 9 -7 42 -11 73
-11 97 33 163 69 107z m230 5 c3 -10 7 -56 8 -101 3 -72 0 -86 -16 -97 -25
-19 -52 -4 -59 32 -5 30 0 149 8 171 7 19 53 15 59 -5z m225 3 c8 -9 11 -47 9
-106 -2 -75 -6 -95 -20 -104 -28 -17 -47 11 -54 79 -11 107 25 179 65 131z
m232 -23 c11 -35 7 -152 -6 -173 -10 -17 -53 -11 -59 8 -13 41 -11 169 3 186
23 28 48 19 62 -21z m214 13 c12 -19 13 -33 5 -72 -5 -27 -11 -65 -12 -84 -3
-40 -33 -54 -55 -24 -15 21 -18 140 -3 178 12 33 44 34 65 2z m1036 5 c23 -18
24 -24 22 -147 -1 -71 -2 -206 -2 -301 -1 -142 -4 -174 -17 -187 -16 -17 -69
-22 -78 -8 -3 4 -7 133 -11 287 -3 153 -8 288 -11 301 -4 16 1 30 20 48 30 31
46 32 77 7z m760 3 c19 -24 23 -152 4 -181 -18 -27 -37 -29 -56 -7 -15 19 -14
171 3 191 14 17 33 16 49 -3z m219 -3 c15 -29 13 -163 -3 -185 -7 -10 -22 -17
-33 -14 -17 3 -19 13 -22 97 -1 52 -1 100 2 108 8 20 44 16 56 -6z m440 0 c14
-28 13 -174 -2 -189 -20 -20 -48 -14 -58 14 -13 34 -13 150 0 175 6 10 19 19
30 19 11 0 24 -9 30 -19z m217 7 c6 -7 13 -49 17 -93 5 -64 3 -85 -10 -103
-17 -25 -36 -28 -52 -9 -16 19 -17 183 -2 202 15 18 34 19 47 3z m8575 0 c-9
-9 -15 -9 -24 0 -9 9 -7 12 12 12 19 0 21 -3 12 -12z m17485 -32 c-4 -9 -16
-16 -27 -16 -29 0 -38 30 -15 47 16 11 21 11 33 -1 8 -8 12 -22 9 -30z m141
32 c17 -17 15 -45 -5 -52 -26 -10 -48 17 -34 43 13 24 22 26 39 9z m159 -32
c-4 -9 -16 -16 -27 -16 -29 0 -38 30 -15 47 16 11 21 11 33 -1 8 -8 12 -22 9
-30z m603 14 c0 -24 -15 -33 -40 -25 -24 8 -26 31 -3 43 22 13 43 4 43 -18z
m140 15 c17 -20 5 -45 -20 -45 -11 0 -23 7 -26 15 -6 15 11 45 26 45 4 0 13
-7 20 -15z m-31160 -14 c5 -11 10 -50 10 -86 0 -96 -24 -129 -65 -88 -15 14
-16 29 -11 90 4 41 9 80 13 88 8 21 40 18 53 -4z m30565 -6 c0 -13 -8 -21 -22
-23 -19 -3 -23 1 -23 23 0 22 4 26 23 23 14 -2 22 -10 22 -23z m153 8 c5 -17
-26 -29 -40 -15 -6 6 -7 15 -3 22 9 14 37 9 43 -7z m137 -8 c0 -13 -8 -21 -22
-23 -17 -3 -23 2 -23 16 0 10 3 22 7 26 13 13 38 1 38 -19z m-6771 -15 c182 0
326 -4 319 -8 -16 -10 -708 -16 -724 -7 -19 12 13 26 45 20 16 -3 178 -5 360
-5z m4706 0 c0 -5 -7 -10 -16 -10 -8 0 -12 5 -9 10 3 6 10 10 16 10 5 0 9 -4
9 -10z m-42980 -57 c0 -37 -9 -63 -21 -63 -10 0 -12 103 -2 113 11 11 23 -15
23 -50z m4040 42 c0 -8 -9 -15 -20 -15 -20 0 -26 11 -13 23 12 13 33 7 33 -8z
m29470 -42 c0 -44 -10 -69 -21 -51 -10 15 -12 69 -3 93 10 24 24 -1 24 -42z
m-29862 40 c-10 -2 -28 -2 -40 0 -13 2 -5 4 17 4 22 1 32 -1 23 -4z m-16231
-50 c-4 -17 -4 -17 -12 0 -4 9 -4 25 0 35 8 16 8 16 12 0 3 -10 3 -26 0 -35z
m13623 -103 c0 -52 -4 -101 -9 -108 -13 -21 -21 21 -21 108 0 87 8 129 21 108
5 -7 9 -56 9 -108z m8037 114 c-3 -3 -12 -4 -19 -1 -8 3 -5 6 6 6 11 1 17 -2
13 -5z m14793 -160 c0 -107 -3 -163 -10 -159 -6 4 -10 70 -10 166 0 99 4 159
10 159 6 0 10 -62 10 -166z m7000 121 c0 -25 -4 -45 -10 -45 -11 0 -14 73 -3
83 11 12 13 8 13 -38z m15680 29 c0 -2 -9 -4 -21 -4 -11 0 -18 4 -14 10 5 8
35 3 35 -6z m-22229 -44 c6 0 7 -4 4 -10 -7 -12 -55 -13 -55 -2 0 15 13 23 28
17 7 -3 18 -5 23 -5z m7149 -37 c0 -12 -4 -25 -10 -28 -6 -4 -10 11 -10 37 0
31 3 39 10 28 5 -8 10 -25 10 -37z m11620 27 c0 -5 -5 -10 -11 -10 -5 0 -7 5
-4 10 3 6 8 10 11 10 2 0 4 -4 4 -10z m1218 -13 c2 -9 -4 -20 -12 -23 -21 -8
-46 13 -39 32 8 20 47 13 51 -9z m139 12 c14 -14 6 -39 -12 -39 -18 0 -28 17
-21 35 6 18 18 19 33 4z m158 -14 c0 -22 -22 -30 -44 -16 -21 14 -5 43 21 39
15 -2 23 -10 23 -23z m151 14 c10 -17 -23 -46 -37 -32 -7 7 -9 19 -6 27 7 18
33 21 43 5z m154 -15 c0 -17 -36 -19 -46 -3 -8 14 14 29 33 22 7 -3 13 -11 13
-19z m129 -10 c-15 -19 -25 -18 -33 3 -8 21 14 36 31 21 10 -8 10 -14 2 -24z
m166 11 c0 -22 -22 -30 -44 -16 -21 14 -5 43 21 39 15 -2 23 -10 23 -23z m152
9 c2 -7 -4 -19 -13 -29 -15 -15 -19 -15 -32 -1 -20 20 -8 48 20 44 12 -2 23
-8 25 -14z m-39901 -21 c-10 -10 -19 5 -10 18 6 11 8 11 12 0 2 -7 1 -15 -2
-18z m28049 -51 c-7 -26 -7 -26 -15 -5 -5 11 -6 31 -3 43 5 20 7 20 15 5 6 -9
7 -28 3 -43z m-6925 44 c0 -3 -4 -8 -10 -11 -5 -3 -10 -1 -10 4 0 6 5 11 10
11 6 0 10 -2 10 -4z m-22751 -22 c11 -10 -13 -13 -123 -16 -85 -2 -120 0 -123
9 -3 7 9 13 29 15 38 4 211 -3 217 -8z m4942 6 c5 0 9 -4 9 -9 0 -15 -41 -24
-52 -13 -14 14 0 35 19 28 8 -3 19 -6 24 -6z m-5343 -12 c-3 -7 -10 -13 -16
-12 -7 1 -40 2 -74 4 -48 2 -56 4 -33 9 58 13 127 12 123 -1z m622 2 c0 -5 -3
-10 -7 -11 -49 -5 -132 -6 -145 -2 -44 11 -11 23 67 23 50 0 85 -4 85 -10z
m5030 0 c0 -5 -11 -10 -25 -10 -14 0 -25 5 -25 10 0 6 11 10 25 10 14 0 25 -4
25 -10z m33820 -4 c0 -2 -7 -6 -15 -10 -8 -3 -15 -1 -15 4 0 6 7 10 15 10 8 0
15 -2 15 -4z m-46423 -103 c-2 -16 -4 -3 -4 27 0 30 2 43 4 28 2 -16 2 -40 0
-55z m34393 -111 c-1 -138 -2 -154 -14 -132 -11 19 -13 58 -9 162 3 76 10 135
14 132 5 -3 9 -76 9 -162z m-31042 130 c4 -14 -34 -16 -42 -3 -6 10 13 21 28
17 6 -1 12 -8 14 -14z m24532 -2 c0 -5 -4 -10 -9 -10 -6 0 -13 5 -16 10 -3 6
1 10 9 10 9 0 16 -4 16 -10z m8537 -37 c-3 -10 -5 -2 -5 17 0 19 2 27 5 18 2
-10 2 -26 0 -35z m11409 8 c-4 -6 -16 -11 -27 -11 -21 0 -27 35 -6 43 16 6 41
-18 33 -32z m138 33 c21 -8 20 -40 -1 -48 -9 -4 -23 0 -31 8 -13 12 -13 18 -2
30 14 18 13 18 34 10z m164 -18 c2 -10 -1 -22 -8 -26 -19 -12 -50 1 -50 20 0
33 52 38 58 6z m142 9 c15 -18 5 -35 -21 -35 -12 0 -19 7 -19 18 0 33 20 42
40 17z m160 0 c16 -19 4 -35 -25 -35 -27 0 -39 14 -31 35 7 19 40 19 56 0z
m139 6 c19 -12 6 -41 -18 -41 -26 0 -36 17 -21 35 14 17 20 18 39 6z m161 -6
c16 -19 4 -35 -26 -35 -28 0 -44 28 -23 41 20 13 35 11 49 -6z m138 -9 c4 -21
-14 -37 -35 -29 -14 5 -18 35 -6 47 12 12 38 1 41 -18z m-15508 -20 c0 -19 -4
-38 -10 -41 -12 -7 -24 39 -16 60 10 27 26 16 26 -19z m3657 -13 c-3 -10 -5
-2 -5 17 0 19 2 27 5 18 2 -10 2 -26 0 -35z m-31817 -3 c0 -22 -2 -40 -5 -40
-10 0 -24 50 -19 65 11 28 24 15 24 -25z m41377 24 c-3 -3 -12 -4 -19 -1 -8 3
-5 6 6 6 11 1 17 -2 13 -5z m-36971 -147 c-4 -59 -2 -94 5 -103 17 -21 7 -59
-16 -59 -16 0 -19 6 -17 30 1 17 2 76 2 132 -2 107 5 139 23 108 6 -11 7 -54
3 -108z m7665 107 c16 -20 22 -252 6 -271 -12 -16 -53 -17 -63 -2 -11 18 -12
262 -1 277 13 17 42 15 58 -4z m1150 -1 c11 -14 14 -48 13 -142 -1 -118 -2
-125 -22 -132 -22 -8 -52 -3 -52 10 -1 3 -2 59 -4 124 -2 87 1 123 11 137 17
25 36 25 54 3z m449 7 c12 -7 15 -36 16 -141 1 -126 0 -131 -21 -141 -16 -7
-29 -7 -41 0 -16 9 -18 26 -19 133 -1 95 2 128 14 142 16 19 29 21 51 7z
m2902 -7 c12 -14 15 -44 13 -138 0 -66 -4 -126 -9 -133 -8 -14 -35 -16 -55 -3
-19 12 -20 254 -1 276 16 20 33 19 52 -2z m-5365 -5 c5 -7 9 -69 9 -137 -1
-107 -3 -125 -18 -135 -13 -8 -23 -8 -35 0 -15 9 -18 29 -19 130 0 65 3 127 8
137 10 20 41 23 55 5z m432 -2 c7 -8 10 -57 9 -137 l-3 -124 -34 0 -35 0 -1
124 c0 92 3 127 13 137 17 18 36 18 51 0z m221 -6 c8 -14 8 -31 2 -53 -10 -34
-9 -114 3 -158 10 -41 -36 -75 -71 -51 -15 10 -17 251 -3 269 17 20 57 16 69
-7z m444 4 c3 -9 6 -69 6 -134 0 -126 -8 -148 -50 -135 -19 6 -20 14 -20 139
0 73 3 136 7 139 12 13 51 7 57 -9z m211 -6 c3 -13 4 -75 3 -138 -3 -111 -4
-115 -26 -118 -42 -6 -48 10 -50 134 -3 125 3 144 44 144 16 0 25 -7 29 -22z
m485 7 c7 -9 11 -45 9 -102 -1 -48 1 -99 4 -113 8 -29 0 -45 -29 -54 -44 -13
-54 10 -57 134 -2 63 0 123 5 133 11 21 51 23 68 2z m458 -2 c9 -21 7 -246 -3
-262 -10 -17 -53 -13 -62 7 -7 13 -9 196 -4 260 2 19 59 15 69 -5z m430 0 c6
-14 8 -185 3 -256 -1 -5 -16 -7 -33 -5 l-33 3 -1 125 c-1 69 3 131 9 138 14
18 45 15 55 -5z m2027 7 c4 -6 7 -67 7 -136 1 -98 -2 -128 -13 -135 -19 -12
-46 -11 -54 2 -10 16 -12 241 -3 262 9 18 53 23 63 7z m222 -2 c15 -20 7 -259
-9 -270 -16 -10 -20 -10 -37 1 -16 11 -25 235 -10 264 11 20 42 23 56 5z m212
-1 c7 -9 10 -58 9 -136 -2 -134 -9 -153 -52 -133 -22 10 -23 15 -24 133 0 74
4 129 10 136 14 17 43 17 57 0z m8551 3 c0 -5 -7 -10 -15 -10 -8 0 -15 5 -15
10 0 6 7 10 15 10 8 0 15 -4 15 -10z m-25540 -56 c0 -44 -12 -58 -24 -28 -9
22 4 85 15 78 5 -3 9 -25 9 -50z m16340 36 c6 -11 8 -25 4 -31 -8 -13 -7 -106
2 -166 5 -35 3 -43 -15 -52 -14 -8 -27 -9 -40 -2 -16 9 -19 26 -23 128 -3 66
0 124 5 131 15 19 55 14 67 -8z m-13710 -10 c0 -5 -16 -10 -36 -10 -21 0 -33
4 -29 10 3 6 19 10 36 10 16 0 29 -4 29 -10z m370 0 c0 -5 -9 -10 -20 -10 -11
0 -20 5 -20 10 0 6 9 10 20 10 11 0 20 -4 20 -10z m28864 -63 c-6 -19 -7 -19
-16 -3 -5 10 -7 29 -3 44 l7 27 9 -24 c5 -13 7 -33 3 -44z m599 -20 c-11 -22
-11 -22 -18 6 -4 15 -4 39 0 55 l8 27 10 -33 c7 -22 7 -39 0 -55z m8464 31
c-3 -7 -5 -2 -5 12 0 14 2 19 5 13 2 -7 2 -19 0 -25z m-40284 -72 c-10 -34
-20 5 -15 54 l6 45 7 -40 c4 -22 5 -49 2 -59z m6257 74 c11 -7 7 -10 -18 -10
-20 0 -31 4 -27 10 8 13 26 13 45 0z m30470 0 c14 -4 -100 -8 -257 -9 -183 -1
-283 3 -283 9 0 12 502 12 540 0z m180 0 c0 -6 -27 -10 -61 -10 -37 0 -58 4
-54 10 3 6 31 10 61 10 30 0 54 -4 54 -10z m4565 0 c-3 -5 -10 -10 -16 -10 -5
0 -9 5 -9 10 0 6 7 10 16 10 8 0 12 -4 9 -10z m1149 -33 c-8 -22 -43 -22 -51
-1 -9 25 26 49 44 31 8 -7 11 -21 7 -30z m304 4 c-4 -31 -35 -36 -52 -8 -9 14
-7 21 7 32 27 19 49 8 45 -24z m752 9 c0 -5 -7 -16 -16 -25 -12 -12 -19 -13
-30 -4 -29 24 -5 66 28 48 10 -5 18 -14 18 -19z m-902 -6 c4 -29 -23 -51 -43
-34 -16 13 -20 42 -8 54 14 14 48 1 51 -20z m302 6 c0 -24 -26 -38 -42 -22
-16 16 -2 42 22 42 13 0 20 -7 20 -20z m148 -2 c-4 -27 -33 -36 -42 -13 -8 22
1 35 25 35 15 0 20 -6 17 -22z m142 3 c0 -22 -25 -45 -40 -36 -11 7 -14 38 -3
48 14 15 43 7 43 -12z m155 0 c0 -8 -8 -19 -17 -25 -22 -13 -44 5 -34 29 7 20
51 16 51 -4z m-51055 -32 c0 -16 -4 -29 -10 -29 -5 0 -10 16 -10 36 0 21 4 33
10 29 6 -3 10 -19 10 -36z m25080 -60 c0 -68 -3 -90 -12 -87 -13 5 -22 121
-12 166 10 50 24 6 24 -79z m4640 21 c0 -33 -4 -60 -10 -60 -11 0 -13 62 -4
98 10 36 14 26 14 -38z m13470 25 c0 -14 -4 -25 -10 -25 -5 0 -10 11 -10 25 0
14 5 25 10 25 6 0 10 -11 10 -25z m-17297 8 c-7 -2 -19 -2 -25 0 -7 3 -2 5 12
5 14 0 19 -2 13 -5z m22973 -8 c-11 -8 -29 -15 -39 -15 -16 0 -17 3 -7 15 7 8
24 15 39 15 25 -1 25 -1 7 -15z m-55597 -42 c0 -29 -2 -33 -8 -18 -7 18 -4 55
5 55 2 0 4 -17 3 -37z m9063 -35 c-9 -9 -12 -1 -11 33 l1 44 11 -33 c7 -24 7
-36 -1 -44z m30178 62 c0 -5 -21 -10 -46 -10 -27 0 -43 4 -39 10 3 6 24 10 46
10 21 0 39 -4 39 -10z m6844 -55 c-4 -8 -10 -12 -15 -9 -11 6 -12 48 -2 58 10
10 24 -31 17 -49z m556 -10 c0 -37 -4 -65 -10 -65 -6 0 -10 28 -10 65 0 37 4
65 10 65 6 0 10 -28 10 -65z m-23100 5 c0 -22 -4 -40 -10 -40 -11 0 -14 63 -3
73 11 12 13 8 13 -33z m17640 -3 c0 -41 -14 -66 -24 -42 -8 21 -8 70 0 78 13
13 24 -5 24 -36z m-27552 -11 c3 -32 1 -37 -15 -34 -19 3 -29 38 -19 65 10 26
31 8 34 -31z m644 -5 c1 -35 -5 -46 -21 -36 -12 7 -14 44 -5 70 10 24 25 4 26
-34z m1981 39 c10 0 15 -4 12 -10 -3 -5 -28 -10 -56 -10 -39 0 -49 3 -49 16 0
14 7 15 38 10 20 -3 45 -6 55 -6z m351 4 c9 -3 16 -10 16 -14 0 -15 -29 -19
-67 -8 -36 11 -37 12 -13 19 33 10 45 10 64 3z m38871 -4 c-3 -5 -15 -10 -26
-10 -11 0 -17 5 -14 10 3 6 15 10 26 10 11 0 17 -4 14 -10z m-39465 -10 c0 -5
-6 -10 -14 -10 -8 0 -18 5 -21 10 -3 6 3 10 14 10 12 0 21 -4 21 -10z m450 0
c-17 -11 -91 -11 -135 0 -21 5 -3 8 60 9 61 0 85 -2 75 -9z m18035 -10 c10
-11 21 -17 26 -15 4 3 10 1 13 -4 6 -9 -82 -26 -91 -17 -10 10 7 56 21 56 7 0
21 -9 31 -20z m923 -9 c5 -29 -13 -50 -29 -34 -15 15 -3 66 14 60 7 -2 14 -14
15 -26z m14502 -13 c0 -23 -3 -29 -11 -21 -6 6 -8 20 -4 32 9 30 15 26 15 -11z
m5801 -11 c-12 -15 -90 -41 -98 -33 -15 15 40 43 91 45 14 1 16 -2 7 -12z
m-23091 -21 c0 -16 -27 -29 -41 -20 -19 11 -9 34 16 34 15 0 25 -6 25 -14z
m13447 -28 c-3 -8 -6 -5 -6 6 -1 11 2 17 5 13 3 -3 4 -12 1 -19z"/>
<path d="M11000 8891 c0 -88 9 -116 32 -93 15 15 -3 174 -19 180 -10 3 -13
-19 -13 -87z"/>
<path d="M10993 8693 c-25 -38 -26 -111 -18 -922 l7 -694 24 -24 23 -23 415 0
c385 0 416 1 424 18 13 24 22 336 23 816 1 389 1 410 -17 424 -15 11 -56 13
-219 9 -115 -3 -207 -1 -217 4 -16 9 -18 27 -18 168 0 140 -2 160 -18 174 -16
14 -43 17 -170 17 l-152 0 -32 30 c-17 17 -32 30 -34 30 -2 0 -12 -12 -21 -27z"/>
<path d="M20617 8656 c-17 -44 3 -98 24 -65 13 20 11 42 -4 63 -13 18 -14 18
-20 2z"/>
<path d="M4146 6583 c-13 -13 -6 -63 9 -63 10 0 15 10 15 29 0 30 -12 46 -24
34z"/>
</g>
</svg>
